M48
; DRILL file {KiCad 9.0.6} date 2025-12-07T23:37:40-0600
; FORMAT={-:-/ absolute / metric / decimal}
; #@! TF.CreationDate,2025-12-07T23:37:40-06:00
; #@! TF.GenerationSoftware,Kicad,Pcbnew,9.0.6
; #@! TF.FileFunction,Plated,1,2,PTH
FMAT,2
METRIC
; #@! TA.AperFunction,Plated,PTH,ViaDrill
T1C0.300
; #@! TA.AperFunction,Plated,PTH,ComponentDrill
T2C0.600
; #@! TA.AperFunction,Plated,PTH,ComponentDrill
T3C0.750
; #@! TA.AperFunction,Plated,PTH,ComponentDrill
T4C1.000
%
G90
G05
T1
X126.774Y-83.376
X128.067Y-85.023
X130.145Y-85.403
X131.665Y-83.37
X131.8Y-85.565
X132.009Y-88.611
X132.504Y-89.106
X132.979Y-74.211
X133.288Y-86.606
X134.054Y-78.564
X134.69Y-80.795
X134.71Y-79.845
X134.8Y-86.725
X134.983Y-87.692
X135.192Y-93.87
X135.58Y-78.49
X135.705Y-87.071
X136.18Y-93.86
X136.484Y-73.094
X136.7Y-76.67
X136.88Y-87.05
X137.47Y-76.255
X137.475Y-72.748
X137.492Y-88.377
X137.493Y-86.712
X137.551Y-74.081
X137.59Y-79.845
X137.775Y-83.115
X137.775Y-84.16
X138.046Y-73.586
X138.077Y-93.081
X138.16Y-89.74
X138.437Y-79.854
X138.461Y-88.961
X138.48Y-80.85
X138.572Y-92.586
X138.62Y-74.44
X138.673Y-78.987
X138.95Y-71.28
X139.105Y-72.94
X139.131Y-81.106
X139.23Y-90.215
X139.285Y-83.53
X139.285Y-84.59
X139.35Y-109.47
X139.705Y-91.37
X139.84Y-89.872
X139.86Y-64.67
X140.235Y-81.12
X140.24Y-80.35
X140.31Y-114.53
X140.329Y-71.629
X140.45Y-90.215
X140.48Y-117.57
X140.634Y-76.052
X140.89Y-76.703
X141.229Y-84.021
X141.28Y-66.78
X141.284Y-84.719
X141.48Y-86.28
X141.535Y-92.784
X141.841Y-77.259
X142.01Y-85.07
X142.029Y-76.081
X142.313Y-95.423
X142.505Y-83.479
X142.513Y-76.587
X142.98Y-84.429
X142.982Y-96.604
X143.002Y-94.062
X143.203Y-92.833
X143.21Y-77.565
X143.24Y-76.65
X143.6Y-85.02
X143.623Y-93.394
X143.81Y-83.479
X144.2Y-91.165
X144.618Y-64.5
X144.674Y-73.744
X144.898Y-78.77
X145.043Y-71.516
X145.23Y-68.835
X145.64Y-118.465
X145.89Y-70.314
X146.064Y-99.036
X146.559Y-99.531
X146.683Y-82.175
X146.94Y-102.65
X147.09Y-103.785
X147.1Y-100.19
X147.287Y-118.465
X147.32Y-80.1
X147.383Y-85.635
X147.64Y-76.61
X148.083Y-85.635
X148.403Y-86.627
X148.573Y-74.071
X149.046Y-97.716
X149.14Y-71.0
X149.47Y-86.585
X149.47Y-84.97
X149.498Y-82.277
X149.65Y-95.86
X149.76Y-109.51
X149.805Y-83.954
X149.845Y-78.815
X149.852Y-103.386
X150.143Y-85.635
X150.17Y-86.585
X150.71Y-90.69
X150.787Y-82.752
X151.227Y-105.237
X151.35Y-81.4
X151.488Y-104.587
X151.65Y-92.93
X151.89Y-90.691
X152.045Y-88.223
X152.46Y-77.375
X152.54Y-89.59
X152.65Y-76.425
X152.675Y-93.115
X153.22Y-107.11
X153.23Y-114.55
X153.625Y-102.839
X153.625Y-96.97
X153.695Y-104.112
X153.76Y-92.136
X154.1Y-95.132
X154.248Y-85.112
X154.421Y-106.48
X154.44Y-104.112
X154.9Y-91.885
X155.91Y-84.225
X156.14Y-111.8
X156.339Y-93.551
X156.725Y-80.355
X156.94Y-87.311
X157.096Y-96.765
X157.229Y-91.928
X157.365Y-79.651
X157.488Y-85.375
X157.613Y-87.502
X157.644Y-59.794
X158.088Y-88.43
X158.28Y-106.25
X158.382Y-59.412
X158.53Y-105.1
X158.575Y-88.933
X158.637Y-85.635
X158.951Y-60.541
X159.16Y-85.16
X159.187Y-89.742
X159.24Y-55.3
X159.353Y-59.063
X159.479Y-115.137
X159.58Y-115.875
X159.865Y-96.405
X160.09Y-88.96
X160.227Y-115.609
X160.36Y-100.165
X160.45Y-113.1
X160.479Y-81.281
X160.59Y-90.875
X160.789Y-87.435
X160.9Y-97.715
X160.94Y-106.455
X160.97Y-115.33
X161.22Y-107.98
X161.32Y-86.77
X161.94Y-91.385
X162.198Y-69.275
X162.78Y-105.98
X163.289Y-70.721
X163.451Y-68.829
X163.506Y-85.29
X163.665Y-81.15
X163.665Y-81.91
X163.825Y-71.266
X163.91Y-83.35
X163.95Y-84.64
X164.08Y-117.09
X164.44Y-84.14
X164.87Y-106.23
X165.059Y-80.161
X165.12Y-90.4
X165.632Y-81.653
X165.927Y-70.633
X166.02Y-91.19
X166.138Y-69.966
X166.18Y-92.06
X166.65Y-113.45
X167.25Y-81.68
X167.25Y-93.818
T3
X165.42Y-97.24
X165.42Y-99.24
X165.42Y-101.24
T4
X128.933Y-66.89
X128.933Y-81.89
X129.43Y-54.96
X129.43Y-57.5
X129.43Y-60.04
X129.43Y-62.58
X144.142Y-51.1
X144.142Y-66.1
X149.565Y-51.07
X149.565Y-66.07
T2
G00X158.58Y-119.325
M15
G01X158.58Y-118.225
M16
G05
G00X158.58Y-123.345
M15
G01X158.58Y-122.545
M16
G05
G00X167.22Y-119.325
M15
G01X167.22Y-118.225
M16
G05
G00X167.22Y-123.345
M15
G01X167.22Y-122.545
M16
G05
M30
