%TF.GenerationSoftware,KiCad,Pcbnew,9.0.6*%
%TF.CreationDate,2025-12-07T23:37:28-06:00*%
%TF.ProjectId,Tony's MP3 Player,546f6e79-2773-4204-9d50-3320506c6179,rev?*%
%TF.SameCoordinates,Original*%
%TF.FileFunction,Copper,L2,Bot*%
%TF.FilePolarity,Positive*%
%FSLAX46Y46*%
G04 Gerber Fmt 4.6, Leading zero omitted, Abs format (unit mm)*
G04 Created by KiCad (PCBNEW 9.0.6) date 2025-12-07 23:37:28*
%MOMM*%
%LPD*%
G01*
G04 APERTURE LIST*
G04 Aperture macros list*
%AMRoundRect*
0 Rectangle with rounded corners*
0 $1 Rounding radius*
0 $2 $3 $4 $5 $6 $7 $8 $9 X,Y pos of 4 corners*
0 Add a 4 corners polygon primitive as box body*
4,1,4,$2,$3,$4,$5,$6,$7,$8,$9,$2,$3,0*
0 Add four circle primitives for the rounded corners*
1,1,$1+$1,$2,$3*
1,1,$1+$1,$4,$5*
1,1,$1+$1,$6,$7*
1,1,$1+$1,$8,$9*
0 Add four rect primitives between the rounded corners*
20,1,$1+$1,$2,$3,$4,$5,0*
20,1,$1+$1,$4,$5,$6,$7,0*
20,1,$1+$1,$6,$7,$8,$9,0*
20,1,$1+$1,$8,$9,$2,$3,0*%
G04 Aperture macros list end*
%TA.AperFunction,SMDPad,CuDef*%
%ADD10RoundRect,0.100000X-0.217500X-0.100000X0.217500X-0.100000X0.217500X0.100000X-0.217500X0.100000X0*%
%TD*%
%TA.AperFunction,SMDPad,CuDef*%
%ADD11RoundRect,0.100000X0.217500X0.100000X-0.217500X0.100000X-0.217500X-0.100000X0.217500X-0.100000X0*%
%TD*%
%TA.AperFunction,SMDPad,CuDef*%
%ADD12RoundRect,0.100000X0.100000X-0.217500X0.100000X0.217500X-0.100000X0.217500X-0.100000X-0.217500X0*%
%TD*%
%TA.AperFunction,SMDPad,CuDef*%
%ADD13RoundRect,0.250001X1.762499X1.849999X-1.762499X1.849999X-1.762499X-1.849999X1.762499X-1.849999X0*%
%TD*%
%TA.AperFunction,ComponentPad*%
%ADD14O,1.600000X1.600000*%
%TD*%
%TA.AperFunction,ComponentPad*%
%ADD15RoundRect,0.250000X0.625000X-0.350000X0.625000X0.350000X-0.625000X0.350000X-0.625000X-0.350000X0*%
%TD*%
%TA.AperFunction,ComponentPad*%
%ADD16O,1.750000X1.200000*%
%TD*%
%TA.AperFunction,SMDPad,CuDef*%
%ADD17R,2.800000X2.200000*%
%TD*%
%TA.AperFunction,SMDPad,CuDef*%
%ADD18R,2.800000X2.800000*%
%TD*%
%TA.AperFunction,SMDPad,CuDef*%
%ADD19R,2.200000X2.800000*%
%TD*%
%TA.AperFunction,SMDPad,CuDef*%
%ADD20R,0.600000X1.160000*%
%TD*%
%TA.AperFunction,SMDPad,CuDef*%
%ADD21R,0.300000X1.160000*%
%TD*%
%TA.AperFunction,HeatsinkPad*%
%ADD22O,0.900000X2.000000*%
%TD*%
%TA.AperFunction,HeatsinkPad*%
%ADD23O,0.900000X1.700000*%
%TD*%
%TA.AperFunction,ComponentPad*%
%ADD24RoundRect,0.250000X0.750000X-0.750000X0.750000X0.750000X-0.750000X0.750000X-0.750000X-0.750000X0*%
%TD*%
%TA.AperFunction,ComponentPad*%
%ADD25C,2.000000*%
%TD*%
%TA.AperFunction,ViaPad*%
%ADD26C,0.600000*%
%TD*%
%TA.AperFunction,Conductor*%
%ADD27C,0.150000*%
%TD*%
%TA.AperFunction,Conductor*%
%ADD28C,0.200000*%
%TD*%
G04 APERTURE END LIST*
D10*
%TO.P,C31,2*%
%TO.N,+BATT*%
X163165000Y-114000000D03*
%TO.P,C31,1*%
%TO.N,VBUS*%
X162350000Y-114000000D03*
%TD*%
%TO.P,R10k1,1*%
%TO.N,+BATT*%
X163262500Y-112290000D03*
%TO.P,R10k1,2*%
%TO.N,Net-(U3-MICN)*%
X164077500Y-112290000D03*
%TD*%
D11*
%TO.P,C29,1*%
%TO.N,+BATT*%
X156357500Y-118740000D03*
%TO.P,C29,2*%
%TO.N,Net-(U1-VDDA)*%
X155542500Y-118740000D03*
%TD*%
%TO.P,C30,2*%
%TO.N,Net-(U1-VDDA)*%
X155572500Y-117230000D03*
%TO.P,C30,1*%
%TO.N,+BATT*%
X156387500Y-117230000D03*
%TD*%
%TO.P,R4,2*%
%TO.N,+BATT*%
X157405000Y-114550000D03*
%TO.P,R4,1*%
%TO.N,Net-(J1-CC1)*%
X158220000Y-114550000D03*
%TD*%
D10*
%TO.P,R15,2*%
%TO.N,Net-(S2-A)*%
X161267500Y-114040000D03*
%TO.P,R15,1*%
%TO.N,+3.3V*%
X160452500Y-114040000D03*
%TD*%
%TO.P,R2,2*%
%TO.N,Net-(U3-MICP{slash}LINE1)*%
X158267500Y-113660000D03*
%TO.P,R2,1*%
%TO.N,+BATT*%
X157452500Y-113660000D03*
%TD*%
D11*
%TO.P,R6,2*%
%TO.N,+BATT*%
X157512500Y-116350000D03*
%TO.P,R6,1*%
%TO.N,Net-(J1-CC2)*%
X158327500Y-116350000D03*
%TD*%
D12*
%TO.P,R3,1*%
%TO.N,USB_D-*%
X163380000Y-116215000D03*
%TO.P,R3,2*%
%TO.N,Net-(U1-PA11)*%
X163380000Y-115400000D03*
%TD*%
D13*
%TO.P,Y1,1,1*%
%TO.N,Net-(U3-XTALI)*%
X164462500Y-109080000D03*
%TO.P,Y1,2,2*%
%TO.N,Net-(U3-XTALO)*%
X156437500Y-109080000D03*
%TD*%
D10*
%TO.P,R50,1*%
%TO.N,Net-(U1-PA12)*%
X161290000Y-116270000D03*
%TO.P,R50,2*%
%TO.N,USB_D+*%
X162105000Y-116270000D03*
%TD*%
D14*
%TO.P,OLED1,1,GND*%
%TO.N,+BATT*%
X129430050Y-62580000D03*
%TO.P,OLED1,2,VCC*%
%TO.N,VCC*%
X129430050Y-60040000D03*
%TO.P,OLED1,3,SCL*%
%TO.N,SCL*%
X129430050Y-57500000D03*
%TO.P,OLED1,4,SDA*%
%TO.N,SDA*%
X129430050Y-54960000D03*
%TD*%
D15*
%TO.P,J4,1,Pin_1*%
%TO.N,+BATT*%
X165420000Y-101240000D03*
D16*
%TO.P,J4,2,Pin_2*%
%TO.N,unconnected-(J4-Pin_2-Pad2)*%
X165420000Y-99240000D03*
%TO.P,J4,3,Pin_3*%
%TO.N,Net-(J4-Pin_3)*%
X165420000Y-97240000D03*
%TD*%
D17*
%TO.P,J2,3,3*%
%TO.N,Net-(C2-Pad2)*%
X132450000Y-55349717D03*
%TO.P,J2,1,1*%
%TO.N,+BATT*%
X139850000Y-53349717D03*
D18*
%TO.P,J2,2,2*%
%TO.N,Net-(C1-Pad2)*%
X139850000Y-62749717D03*
D19*
%TO.P,J2,4,4*%
%TO.N,unconnected-(J2-Pad4)*%
X135400000Y-66949717D03*
%TD*%
D20*
%TO.P,J1,A4,VBUS*%
%TO.N,VBUS*%
X165300000Y-118195000D03*
%TO.P,J1,A1,GND*%
%TO.N,+BATT*%
X166100000Y-118195000D03*
D21*
%TO.P,J1,A5,CC1*%
%TO.N,Net-(J1-CC1)*%
X164150000Y-118195000D03*
%TO.P,J1,A6,D+*%
%TO.N,USB_D+*%
X163150000Y-118195000D03*
%TO.P,J1,A7,D-*%
%TO.N,USB_D-*%
X162650000Y-118195000D03*
%TO.P,J1,A8,SBU1*%
%TO.N,unconnected-(J1-SBU1-PadA8)*%
X161650000Y-118195000D03*
D20*
%TO.P,J1,A9,VBUS*%
%TO.N,VBUS*%
X160500000Y-118195000D03*
%TO.P,J1,A12,GND*%
%TO.N,+BATT*%
X159700000Y-118195000D03*
%TO.P,J1,B1,GND*%
X159700000Y-118195000D03*
%TO.P,J1,B4,VBUS*%
%TO.N,VBUS*%
X160500000Y-118195000D03*
D21*
%TO.P,J1,B5,CC2*%
%TO.N,Net-(J1-CC2)*%
X161150000Y-118195000D03*
%TO.P,J1,B6,D+*%
%TO.N,USB_D+*%
X162150000Y-118195000D03*
%TO.P,J1,B7,D-*%
%TO.N,USB_D-*%
X163650000Y-118195000D03*
%TO.P,J1,B8,SBU2*%
%TO.N,unconnected-(J1-SBU2-PadB8)*%
X164650000Y-118195000D03*
D20*
%TO.P,J1,B9,VBUS*%
%TO.N,VBUS*%
X165300000Y-118195000D03*
%TO.P,J1,B12,GND*%
%TO.N,+BATT*%
X166100000Y-118195000D03*
D22*
%TO.P,J1,S1,SHIELD*%
X167220000Y-118775000D03*
D23*
X167220000Y-122945000D03*
D22*
X158580000Y-118775000D03*
D23*
X158580000Y-122945000D03*
%TD*%
D24*
%TO.P,C16,1*%
%TO.N,+2V5*%
X149565000Y-66070000D03*
D25*
%TO.P,C16,2*%
%TO.N,+BATT*%
X149565000Y-51070000D03*
%TD*%
D24*
%TO.P,C15,1*%
%TO.N,+3.3V*%
X144142500Y-66100000D03*
D25*
%TO.P,C15,2*%
%TO.N,+BATT*%
X144142500Y-51100000D03*
%TD*%
D24*
%TO.P,C7,1*%
%TO.N,+3.3V*%
X128932500Y-81890000D03*
D25*
%TO.P,C7,2*%
%TO.N,+BATT*%
X128932500Y-66890000D03*
%TD*%
D26*
%TO.N,Net-(U3-MICN)*%
X157229493Y-91928188D03*
X151650000Y-92930000D03*
X152045000Y-88223249D03*
X154248376Y-85111624D03*
X160900000Y-97715000D03*
%TO.N,Net-(U2-OUTR)*%
X160789124Y-87435000D03*
X159186555Y-89741693D03*
%TO.N,+2V5*%
X160090000Y-88960000D03*
X161320000Y-86770217D03*
X163910000Y-83350000D03*
X146940000Y-102650000D03*
X147090000Y-103785000D03*
X149045852Y-97715852D03*
X147100000Y-100190000D03*
X153760000Y-92136000D03*
X149650000Y-95860000D03*
%TO.N,+3.3V*%
X166180000Y-92060000D03*
X159865000Y-96405000D03*
%TO.N,Net-(U2-CPN)*%
X161940000Y-91385000D03*
X146559100Y-99530852D03*
X156339124Y-93550876D03*
X154099999Y-95131751D03*
%TO.N,Net-(U2-CPP)*%
X153624999Y-102839473D03*
X167250001Y-93818249D03*
X149851955Y-103386147D03*
X157095876Y-96765000D03*
%TO.N,Switches*%
X152540000Y-89590000D03*
X146683249Y-82175001D03*
X149470000Y-84970000D03*
X147320169Y-80099831D03*
%TO.N,+3.3V*%
X146064124Y-99035876D03*
X142981654Y-96603518D03*
X153625000Y-96970000D03*
%TO.N,Net-(S4-A)*%
X154900000Y-91885000D03*
X142312596Y-95422596D03*
%TO.N,Net-(S7-A)*%
X166650000Y-113450000D03*
X140480000Y-117570000D03*
%TO.N,Net-(S5-A)*%
X153230000Y-114550000D03*
X140310000Y-114530000D03*
X156140000Y-111800000D03*
X160940000Y-106455000D03*
%TO.N,Net-(S6-A)*%
X139350000Y-109470000D03*
X149760000Y-109510000D03*
X154420605Y-106480000D03*
X153219605Y-107110000D03*
X161220000Y-107980000D03*
X158280000Y-106250000D03*
%TO.N,+3.3V*%
X164870000Y-106230000D03*
X160360000Y-100165000D03*
%TO.N,Net-(J4-Pin_3)*%
X137775000Y-83115000D03*
X139285000Y-84590000D03*
X137775000Y-84160000D03*
X141480000Y-86280000D03*
X144199969Y-91164999D03*
X141535000Y-92784124D03*
X152675000Y-93115000D03*
%TO.N,Net-(S3-A)*%
X166020000Y-91190000D03*
X143001720Y-94061720D03*
%TO.N,+3.3V*%
X160450000Y-113100000D03*
%TO.N,Net-(U1-PA11)*%
X139705000Y-91370000D03*
X160970000Y-115330000D03*
X154440000Y-104112146D03*
X139840001Y-89871632D03*
X137470000Y-76255000D03*
%TO.N,Net-(U1-PA12)*%
X136700000Y-76670000D03*
X139230000Y-90215000D03*
X138572324Y-92585924D03*
X153694605Y-104112147D03*
X160227435Y-115608861D03*
%TO.N,Net-(S2-A)*%
X147286751Y-118465001D03*
X159479077Y-115137324D03*
X145640000Y-118465000D03*
%TO.N,Net-(J1-CC1)*%
X159580000Y-115875000D03*
X164080000Y-117090000D03*
%TO.N,VBUS*%
X151487742Y-104587146D03*
%TO.N,Net-(U3-MICP{slash}LINE1)*%
X155910000Y-84225000D03*
X151890000Y-90691000D03*
X151226624Y-105236624D03*
%TO.N,Net-(U2-HPVSS)*%
X143622729Y-93393836D03*
X160590000Y-90875000D03*
%TO.N,Net-(U2-HPVDD)*%
X165120000Y-90400000D03*
X143203360Y-92833360D03*
%TO.N,Net-(U1-VDDA)*%
X138077348Y-93080901D03*
%TO.N,Net-(U3-XTALI)*%
X163289124Y-70720876D03*
X166137644Y-69965811D03*
%TO.N,Net-(U3-XTALO)*%
X165926720Y-70633280D03*
X163825000Y-71265876D03*
%TO.N,Net-(U3-XTALI)*%
X162780000Y-105980000D03*
%TO.N,Net-(U3-XTALO)*%
X158530000Y-105100000D03*
%TO.N,+3.3V*%
X163450844Y-68829156D03*
X162198217Y-69275000D03*
%TO.N,Net-(S9-A)*%
X145890000Y-70313876D03*
X145230000Y-68835000D03*
%TO.N,Net-(U1-VCAP1)*%
X139105000Y-72940000D03*
X140329124Y-71629124D03*
%TO.N,Net-(U1-BOOT0)*%
X140240000Y-80350000D03*
X138436757Y-79853925D03*
%TO.N,+BATT*%
X138480000Y-80850000D03*
X137590000Y-79845000D03*
X135580000Y-78490000D03*
X134054124Y-78564124D03*
X136484156Y-73094156D03*
X138045852Y-73585900D03*
X132979156Y-74210844D03*
%TO.N,GPIO1*%
X142505374Y-83478623D03*
X140450000Y-90215000D03*
X136180000Y-93860000D03*
X135192500Y-93870000D03*
X143600000Y-85020000D03*
X143810000Y-83478623D03*
%TO.N,GPIO0*%
X142980374Y-84428622D03*
%TO.N,UART-RX*%
X152650000Y-76425000D03*
X152460000Y-77375000D03*
%TO.N,+3.3V*%
X147640000Y-76610000D03*
%TO.N,GPIO0*%
X142010000Y-85070000D03*
%TO.N,Net-(U5-EN1)*%
X134800000Y-86725000D03*
X132504124Y-89105876D03*
%TO.N,Net-(U5-EN2)*%
X133288445Y-86606480D03*
X132009124Y-88610876D03*
%TO.N,Net-(U1-VDDA)*%
X138160000Y-89740000D03*
%TO.N,Net-(D1-K)*%
X138460876Y-88960876D03*
%TO.N,Net-(BLUE1-K)*%
X135705001Y-87070749D03*
X134982874Y-87692126D03*
%TO.N,+BATT*%
X130145001Y-85403249D03*
X128066640Y-85023360D03*
%TO.N,+3.3V*%
X126774124Y-83375876D03*
%TO.N,Net-(U5-ILIM)*%
X141284359Y-84718696D03*
X139285000Y-83530000D03*
%TO.N,+BATT*%
X149140000Y-71000000D03*
X148573142Y-74070703D03*
X158950876Y-60540876D03*
%TO.N,Net-(C2-Pad2)*%
X150710000Y-90690000D03*
%TO.N,Net-(U5-TS)*%
X131800000Y-85565000D03*
X131665000Y-83370000D03*
%TO.N,Net-(U1-VDDA)*%
X141229124Y-84020876D03*
X149805374Y-83953623D03*
X137492317Y-88376921D03*
X137493260Y-86712487D03*
%TO.N,Net-(D1-K)*%
X136880000Y-87050000D03*
%TO.N,+3.3V*%
X138950000Y-71280000D03*
X137475000Y-72747640D03*
%TO.N,Net-(U2-OUTL)*%
X144617500Y-64500000D03*
X165631624Y-81653376D03*
X141280000Y-66780000D03*
X165059124Y-80160876D03*
%TO.N,SDA*%
X138673263Y-78986737D03*
%TO.N,SCL*%
X137550876Y-74080876D03*
%TO.N,DAT3*%
X157644156Y-59794156D03*
X138620000Y-74440000D03*
%TO.N,CLK*%
X158381640Y-59411640D03*
X140890230Y-76703282D03*
%TO.N,DAT0*%
X159353067Y-59063067D03*
X140634232Y-76051773D03*
%TO.N,SDIO*%
X159240000Y-55300000D03*
X145042678Y-71515876D03*
%TO.N,Net-(U5-ISET)*%
X134690000Y-80795000D03*
X134710000Y-79845000D03*
%TO.N,CE*%
X140235000Y-81120000D03*
X139131398Y-81106288D03*
%TO.N,Net-(U1-PA2)*%
X143240000Y-76650000D03*
X144674124Y-73744124D03*
%TO.N,GAIN1*%
X143210000Y-77565000D03*
X158574998Y-88933246D03*
%TO.N,GAIN0*%
X144898303Y-78769945D03*
X158088431Y-88430000D03*
%TO.N,Net-(U2-INL+)*%
X157487640Y-85375000D03*
X164440000Y-84140100D03*
%TO.N,Net-(U3-GBUF)*%
X163665000Y-81910000D03*
X151350000Y-81400000D03*
%TO.N,Net-(U2-INR-)*%
X163506000Y-85290000D03*
X150787285Y-82751623D03*
%TO.N,Net-(U2-INR+)*%
X163950000Y-84640000D03*
X149498376Y-82276624D03*
%TO.N,+2V5*%
X163665000Y-81150000D03*
X160479454Y-81280546D03*
%TO.N,+3.3V*%
X167250000Y-81680000D03*
%TO.N,+BATT*%
X157613431Y-87502035D03*
X159160000Y-85160001D03*
%TO.N,Net-(C1-Pad2)*%
X139860000Y-64670000D03*
%TO.N,+3.3V*%
X142028832Y-76081447D03*
X149845000Y-78815000D03*
X157364579Y-79650594D03*
X156725240Y-80354759D03*
%TO.N,GPIO4*%
X156940000Y-87311000D03*
X158636751Y-85635001D03*
X148403250Y-86626754D03*
X147383246Y-85635000D03*
%TO.N,GPIO5*%
X148083249Y-85635000D03*
X149469997Y-86585000D03*
%TO.N,GPIO6*%
X150143249Y-85635001D03*
X150170000Y-86585000D03*
%TO.N,UART-TX*%
X142512983Y-76587017D03*
X141841230Y-77258769D03*
%TD*%
D27*
%TO.N,VBUS*%
X160500000Y-118195000D02*
X160500000Y-118610000D01*
X160500000Y-118610000D02*
X162040000Y-120150000D01*
X162040000Y-120150000D02*
X163920000Y-120150000D01*
X163920000Y-120150000D02*
X165300000Y-118770000D01*
X165300000Y-118770000D02*
X165300000Y-118195000D01*
%TO.N,Net-(S7-A)*%
X140480000Y-117570000D02*
X147154000Y-124244000D01*
X167894000Y-114574000D02*
X166730000Y-113410000D01*
X147154000Y-124244000D02*
X167206298Y-124244000D01*
X167206298Y-124244000D02*
X167894000Y-123556298D01*
X167894000Y-123556298D02*
X167894000Y-114574000D01*
X166730000Y-113410000D02*
X166690000Y-113450000D01*
X166690000Y-113450000D02*
X166650000Y-113450000D01*
%TO.N,+3.3V*%
X149845000Y-78815000D02*
X147111447Y-76081447D01*
X147111447Y-76081447D02*
X142028832Y-76081447D01*
%TO.N,Net-(U3-MICN)*%
X156518681Y-92639000D02*
X157229493Y-91928188D01*
X151941000Y-92639000D02*
X156518681Y-92639000D01*
X151650000Y-92930000D02*
X151941000Y-92639000D01*
%TO.N,Net-(J4-Pin_3)*%
X152755000Y-93115000D02*
X156880000Y-97240000D01*
X152675000Y-93115000D02*
X152755000Y-93115000D01*
X156880000Y-97240000D02*
X165420000Y-97240000D01*
%TO.N,+2V5*%
X149650000Y-95860000D02*
X149650000Y-94080000D01*
X149650000Y-94080000D02*
X151517000Y-92213000D01*
X151517000Y-92213000D02*
X152466872Y-92213000D01*
X152466872Y-92213000D02*
X152543872Y-92136000D01*
X152543872Y-92136000D02*
X153760000Y-92136000D01*
%TO.N,Net-(U3-MICN)*%
X152500000Y-87740000D02*
X152045000Y-88195000D01*
X152045000Y-88195000D02*
X152045000Y-88223249D01*
%TO.N,Switches*%
X149470000Y-84970000D02*
X150151414Y-84970000D01*
X150151414Y-84970000D02*
X151570000Y-86388586D01*
X151570000Y-86388586D02*
X151570000Y-88700000D01*
X151570000Y-88700000D02*
X152460000Y-89590000D01*
X152460000Y-89590000D02*
X152540000Y-89590000D01*
%TO.N,Net-(U3-MICN)*%
X152500000Y-86860000D02*
X152500000Y-87740000D01*
X154248376Y-85111624D02*
X152500000Y-86860000D01*
X163660000Y-102320000D02*
X160900000Y-99560000D01*
X160900000Y-99560000D02*
X160900000Y-97715000D01*
%TO.N,Net-(U2-OUTR)*%
X160789124Y-87435000D02*
X159186555Y-89037569D01*
X159186555Y-89037569D02*
X159186555Y-89741693D01*
%TO.N,+2V5*%
X163910000Y-83350000D02*
X164140000Y-83120000D01*
X160090000Y-88960000D02*
X161320000Y-87730000D01*
X161320000Y-87730000D02*
X161320000Y-86770217D01*
X164140000Y-83120000D02*
X164140000Y-81625000D01*
X164140000Y-81625000D02*
X163665000Y-81150000D01*
X147100000Y-99661704D02*
X149045852Y-97715852D01*
X147100000Y-100190000D02*
X147100000Y-99661704D01*
X147090000Y-102800000D02*
X146940000Y-102650000D01*
X147090000Y-103785000D02*
X147090000Y-102800000D01*
%TO.N,+3.3V*%
X164210000Y-92060000D02*
X159865000Y-96405000D01*
X166180000Y-92060000D02*
X164210000Y-92060000D01*
%TO.N,Net-(U2-CPN)*%
X161870000Y-91315000D02*
X161940000Y-91385000D01*
X161870000Y-91300000D02*
X161870000Y-91315000D01*
X156339124Y-93550876D02*
X158229000Y-91661000D01*
X158229000Y-91661000D02*
X161431000Y-91661000D01*
X161431000Y-91661000D02*
X161792000Y-91300000D01*
X161792000Y-91300000D02*
X161870000Y-91300000D01*
%TO.N,Net-(S3-A)*%
X161066000Y-91072166D02*
X161066000Y-90910000D01*
X160787166Y-91351000D02*
X161066000Y-91072166D01*
X160392834Y-91351000D02*
X160787166Y-91351000D01*
X161066000Y-90910000D02*
X165740000Y-90910000D01*
X152559936Y-91410000D02*
X160100000Y-91410000D01*
X146219000Y-91711000D02*
X152258936Y-91711000D01*
X152258936Y-91711000D02*
X152559936Y-91410000D01*
X145540000Y-92390000D02*
X146219000Y-91711000D01*
X160100000Y-91410000D02*
X160275917Y-91234083D01*
X145540000Y-92403440D02*
X145540000Y-92390000D01*
X143001720Y-94061720D02*
X143881720Y-94061720D01*
X143881720Y-94061720D02*
X145540000Y-92403440D01*
X160275917Y-91234083D02*
X160392834Y-91351000D01*
X165740000Y-90910000D02*
X166020000Y-91190000D01*
%TO.N,Net-(U2-HPVDD)*%
X143203360Y-92833360D02*
X145095720Y-90941000D01*
X159024000Y-90624000D02*
X160167834Y-90624000D01*
X160167834Y-90624000D02*
X160392834Y-90399000D01*
X145095720Y-90941000D02*
X149791000Y-90941000D01*
X149791000Y-90941000D02*
X150016000Y-91166000D01*
X150016000Y-91166000D02*
X152094000Y-91166000D01*
X152094000Y-91166000D02*
X154010000Y-89250000D01*
X154010000Y-89250000D02*
X157650000Y-89250000D01*
X157650000Y-89250000D02*
X159024000Y-90624000D01*
X160392834Y-90399000D02*
X160787166Y-90399000D01*
X160787166Y-90399000D02*
X161028166Y-90640000D01*
X161028166Y-90640000D02*
X164880000Y-90640000D01*
X164880000Y-90640000D02*
X165120000Y-90400000D01*
%TO.N,Net-(U2-CPN)*%
X148868952Y-97221000D02*
X149580000Y-97221000D01*
X146559100Y-99530852D02*
X148868952Y-97221000D01*
X149805000Y-97446000D02*
X153822166Y-97446000D01*
X153840000Y-95391750D02*
X154099999Y-95131751D01*
X154101000Y-96561000D02*
X153840000Y-96300000D01*
X153840000Y-96300000D02*
X153840000Y-95391750D01*
X154101000Y-97167166D02*
X154101000Y-96561000D01*
X149580000Y-97221000D02*
X149805000Y-97446000D01*
X153822166Y-97446000D02*
X154101000Y-97167166D01*
%TO.N,Net-(U2-CPP)*%
X167250001Y-93818249D02*
X164078250Y-96990000D01*
X153624999Y-102839473D02*
X153078325Y-103386147D01*
X164078250Y-96990000D02*
X161470000Y-96990000D01*
X161470000Y-96990000D02*
X157320876Y-96990000D01*
X153078325Y-103386147D02*
X149851955Y-103386147D01*
X157320876Y-96990000D02*
X157095876Y-96765000D01*
%TO.N,Switches*%
X146683249Y-80736751D02*
X146683249Y-82175001D01*
X147320169Y-80099831D02*
X146683249Y-80736751D01*
%TO.N,GAIN1*%
X156534474Y-86333424D02*
X155962000Y-86905898D01*
X155984656Y-83029624D02*
X156534474Y-83579442D01*
X156534474Y-83579442D02*
X156534474Y-86333424D01*
X151963968Y-83029624D02*
X155984656Y-83029624D01*
X143207983Y-79967983D02*
X145890000Y-82650000D01*
X151514969Y-83478623D02*
X151963968Y-83029624D01*
X145890000Y-82650000D02*
X148843618Y-82650000D01*
X143207983Y-77642983D02*
X143207983Y-79967983D01*
X143210000Y-77640966D02*
X143207983Y-77642983D01*
X155962000Y-86905898D02*
X155962000Y-87716102D01*
X149672241Y-83478623D02*
X151514969Y-83478623D01*
X148843618Y-82650000D02*
X149672241Y-83478623D01*
X143210000Y-77565000D02*
X143210000Y-77640966D01*
X155962000Y-87716102D02*
X157179144Y-88933246D01*
X157179144Y-88933246D02*
X158574998Y-88933246D01*
%TO.N,GAIN0*%
X149022376Y-82079458D02*
X149104293Y-81997541D01*
X149022376Y-82473790D02*
X149022376Y-82079458D01*
X156785474Y-86437392D02*
X156785474Y-83475474D01*
X149776209Y-83227623D02*
X149022376Y-82473790D01*
X151411001Y-83227623D02*
X149776209Y-83227623D01*
X151860000Y-82778624D02*
X151411001Y-83227623D01*
X149104293Y-81997541D02*
X149104293Y-81194293D01*
X156785474Y-83475474D02*
X156088624Y-82778624D01*
X156213000Y-87009866D02*
X156785474Y-86437392D01*
X156213000Y-87612134D02*
X156213000Y-87009866D01*
X156088624Y-82778624D02*
X151860000Y-82778624D01*
X157030866Y-88430000D02*
X156213000Y-87612134D01*
X158088431Y-88430000D02*
X157030866Y-88430000D01*
X149104293Y-81194293D02*
X146679945Y-78769945D01*
X146679945Y-78769945D02*
X144898303Y-78769945D01*
%TO.N,+3.3V*%
X153625000Y-96970000D02*
X148130000Y-96970000D01*
X146064124Y-99035876D02*
X148130000Y-96970000D01*
X143348136Y-96970000D02*
X142981654Y-96603518D01*
X148130000Y-96970000D02*
X143348136Y-96970000D01*
%TO.N,Net-(S4-A)*%
X142875812Y-95422596D02*
X145643968Y-92654440D01*
X146336408Y-91962000D02*
X149860000Y-91962000D01*
X145643968Y-92654440D02*
X146336408Y-91962000D01*
X152362904Y-91962000D02*
X152663904Y-91661000D01*
X149860000Y-91962000D02*
X152362904Y-91962000D01*
X154676000Y-91661000D02*
X154900000Y-91885000D01*
X142312596Y-95422596D02*
X142875812Y-95422596D01*
X152663904Y-91661000D02*
X154676000Y-91661000D01*
%TO.N,Net-(S5-A)*%
X153210000Y-114530000D02*
X153230000Y-114550000D01*
X140310000Y-114530000D02*
X153210000Y-114530000D01*
X161696000Y-108177166D02*
X161696000Y-107211000D01*
X161696000Y-107211000D02*
X160940000Y-106455000D01*
X158073166Y-111800000D02*
X161696000Y-108177166D01*
X156140000Y-111800000D02*
X158073166Y-111800000D01*
%TO.N,Net-(S6-A)*%
X161220000Y-107980000D02*
X160010000Y-107980000D01*
X160010000Y-107980000D02*
X158280000Y-106250000D01*
X149760000Y-109510000D02*
X139390000Y-109510000D01*
X153849605Y-106480000D02*
X153219605Y-107110000D01*
X139390000Y-109510000D02*
X139350000Y-109470000D01*
X154420605Y-106480000D02*
X153849605Y-106480000D01*
%TO.N,+3.3V*%
X160360000Y-100165000D02*
X160360000Y-101720000D01*
X160360000Y-101720000D02*
X164870000Y-106230000D01*
%TO.N,Net-(J4-Pin_3)*%
X137775000Y-83115000D02*
X137775000Y-84160000D01*
X144134970Y-91100000D02*
X144199969Y-91164999D01*
X141535000Y-92784124D02*
X143219124Y-91100000D01*
X140975000Y-86280000D02*
X141480000Y-86280000D01*
X143219124Y-91100000D02*
X144134970Y-91100000D01*
X139285000Y-84590000D02*
X140975000Y-86280000D01*
%TO.N,Net-(U3-MICN)*%
X166830000Y-105490000D02*
X163660000Y-102320000D01*
X166830000Y-109490000D02*
X166830000Y-105490000D01*
X164077500Y-112290000D02*
X165474382Y-112290000D01*
X165474382Y-112290000D02*
X166830000Y-110934382D01*
X166830000Y-110934382D02*
X166830000Y-109490000D01*
%TO.N,+3.3V*%
X160452500Y-113102500D02*
X160450000Y-113100000D01*
X160452500Y-114040000D02*
X160452500Y-113102500D01*
%TO.N,Net-(U1-PA11)*%
X139126551Y-88243449D02*
X139840001Y-88956899D01*
X153964001Y-103636147D02*
X154440000Y-104112146D01*
X162070000Y-115330000D02*
X162140000Y-115400000D01*
X139013968Y-82571000D02*
X138501000Y-83083968D01*
X139333968Y-82571000D02*
X139013968Y-82571000D01*
X142728192Y-97021808D02*
X149493192Y-103786809D01*
X138501000Y-87617898D02*
X139126551Y-88243449D01*
X149567530Y-103861147D02*
X152630000Y-103861147D01*
X139840001Y-88956899D02*
X139840001Y-89871632D01*
X139081708Y-93090000D02*
X139081708Y-93375324D01*
X139081708Y-91993292D02*
X139081708Y-93090000D01*
X138501000Y-83083968D02*
X138501000Y-84360000D01*
X138501000Y-84360000D02*
X138501000Y-87617898D01*
X162140000Y-115400000D02*
X163380000Y-115400000D01*
X152630000Y-103861147D02*
X152855000Y-103636147D01*
X139705000Y-91370000D02*
X139081708Y-91993292D01*
X152855000Y-103636147D02*
X153964001Y-103636147D01*
X149493192Y-103786809D02*
X149567530Y-103861147D01*
X139081708Y-93375324D02*
X142728192Y-97021808D01*
X160970000Y-115330000D02*
X162070000Y-115330000D01*
%TO.N,Net-(U1-PA12)*%
X136700000Y-76670000D02*
X137233166Y-76670000D01*
X138910000Y-82320000D02*
X138250000Y-82980000D01*
X138250000Y-82980000D02*
X138250000Y-87721866D01*
X139230000Y-88701866D02*
X139230000Y-90215000D01*
X137233166Y-76670000D02*
X140730000Y-80166834D01*
X140730000Y-80166834D02*
X140730000Y-81298166D01*
X140730000Y-81298166D02*
X139708166Y-82320000D01*
X139708166Y-82320000D02*
X138910000Y-82320000D01*
X138250000Y-87721866D02*
X139230000Y-88701866D01*
%TO.N,Net-(U1-PA11)*%
X140981000Y-81402134D02*
X139812134Y-82571000D01*
X139812134Y-82571000D02*
X139333968Y-82571000D01*
X140981000Y-80062866D02*
X140981000Y-81402134D01*
X137470000Y-76255000D02*
X137640000Y-76425000D01*
X137640000Y-76721866D02*
X138269067Y-77350933D01*
X138269067Y-77350933D02*
X140981000Y-80062866D01*
X137640000Y-76425000D02*
X137640000Y-76721866D01*
%TO.N,Net-(U1-PA12)*%
X144420707Y-99069292D02*
X138830708Y-93479292D01*
X138830708Y-92844308D02*
X138830708Y-93479292D01*
X138572324Y-92585924D02*
X138830708Y-92844308D01*
X161290000Y-116270000D02*
X160888574Y-116270000D01*
X149463562Y-104112147D02*
X144420707Y-99069292D01*
X138830708Y-93479292D02*
X138780707Y-93429292D01*
X160888574Y-116270000D02*
X160227435Y-115608861D01*
X153694605Y-104112147D02*
X149463562Y-104112147D01*
%TO.N,Net-(S2-A)*%
X145640001Y-118465001D02*
X145640000Y-118465000D01*
X161267500Y-114040000D02*
X160170176Y-115137324D01*
X160170176Y-115137324D02*
X159479077Y-115137324D01*
X147286751Y-118465001D02*
X145640001Y-118465001D01*
%TO.N,Net-(J1-CC1)*%
X164150000Y-118195000D02*
X164150000Y-117160000D01*
X164150000Y-117160000D02*
X164080000Y-117090000D01*
X159580000Y-115875000D02*
X159340000Y-115635000D01*
X159340000Y-115635000D02*
X159305000Y-115635000D01*
X159305000Y-115635000D02*
X158220000Y-114550000D01*
%TO.N,VBUS*%
X151487742Y-104587146D02*
X159917146Y-104587146D01*
X159917146Y-104587146D02*
X162200000Y-106870000D01*
X162200000Y-106870000D02*
X162200000Y-113850000D01*
X162200000Y-113850000D02*
X162350000Y-114000000D01*
%TO.N,Net-(U3-MICP{slash}LINE1)*%
X155910000Y-85330000D02*
X153340000Y-87900000D01*
X151226624Y-105236624D02*
X151226624Y-105875209D01*
X152214032Y-90691000D02*
X151890000Y-90691000D01*
X154121000Y-111449000D02*
X155082000Y-112410000D01*
X151226624Y-105875209D02*
X154121000Y-108769585D01*
X153290000Y-87950000D02*
X153290000Y-89615032D01*
X152597516Y-90307516D02*
X152214032Y-90691000D01*
X154121000Y-108769585D02*
X154121000Y-111449000D01*
X155910000Y-84225000D02*
X155910000Y-85330000D01*
X153290000Y-89615032D02*
X152597516Y-90307516D01*
X153340000Y-87900000D02*
X153290000Y-87950000D01*
X155082000Y-112410000D02*
X157017500Y-112410000D01*
X157017500Y-112410000D02*
X158267500Y-113660000D01*
%TO.N,Net-(U2-HPVSS)*%
X157546032Y-89501000D02*
X158382516Y-90337484D01*
X158382516Y-90337484D02*
X158920032Y-90875000D01*
X156070000Y-89501000D02*
X157546032Y-89501000D01*
X158920032Y-90875000D02*
X160590000Y-90875000D01*
X151400000Y-91460000D02*
X152154968Y-91460000D01*
X146430000Y-91192000D02*
X149282000Y-91192000D01*
X149550000Y-91460000D02*
X151400000Y-91460000D01*
X152154968Y-91460000D02*
X153732484Y-89882484D01*
X153732484Y-89882484D02*
X154113968Y-89501000D01*
X154113968Y-89501000D02*
X156070000Y-89501000D01*
X149282000Y-91192000D02*
X149370000Y-91280000D01*
X145824565Y-91192000D02*
X146430000Y-91192000D01*
X143622729Y-93393836D02*
X145824565Y-91192000D01*
X149370000Y-91280000D02*
X149550000Y-91460000D01*
%TO.N,Net-(U1-VDDA)*%
X138077348Y-93080901D02*
X153870000Y-108873553D01*
X153870000Y-108873553D02*
X153870000Y-115527500D01*
X153870000Y-115527500D02*
X155572500Y-117230000D01*
%TO.N,+BATT*%
X158580000Y-118775000D02*
X156392500Y-118775000D01*
X156392500Y-118775000D02*
X156357500Y-118740000D01*
%TO.N,Net-(U3-XTALI)*%
X164044189Y-69965811D02*
X166137644Y-69965811D01*
X163289124Y-70720876D02*
X164044189Y-69965811D01*
%TO.N,Net-(U3-XTALO)*%
X165294124Y-71265876D02*
X163825000Y-71265876D01*
X165926720Y-70633280D02*
X165294124Y-71265876D01*
%TO.N,Net-(U3-XTALI)*%
X162780000Y-105980000D02*
X164462500Y-107662500D01*
X164462500Y-107662500D02*
X164462500Y-109080000D01*
%TO.N,Net-(U3-XTALO)*%
X158530000Y-105100000D02*
X156437500Y-107192500D01*
X156437500Y-107192500D02*
X156437500Y-109080000D01*
%TO.N,+3.3V*%
X163005000Y-69275000D02*
X163450844Y-68829156D01*
X162198217Y-69275000D02*
X163005000Y-69275000D01*
%TO.N,Net-(S9-A)*%
X145230000Y-69653876D02*
X145890000Y-70313876D01*
X145230000Y-68835000D02*
X145230000Y-69653876D01*
%TO.N,Net-(U1-VCAP1)*%
X140329124Y-71715876D02*
X139105000Y-72940000D01*
X140329124Y-71629124D02*
X140329124Y-71715876D01*
%TO.N,Net-(U1-BOOT0)*%
X139743925Y-79853925D02*
X140240000Y-80350000D01*
X138436757Y-79853925D02*
X139743925Y-79853925D01*
%TO.N,SDA*%
X134860000Y-75064968D02*
X127505500Y-67710468D01*
X135260000Y-78930000D02*
X134860000Y-78530000D01*
X135813166Y-78930000D02*
X135777166Y-78966000D01*
X135346834Y-78930000D02*
X135260000Y-78930000D01*
X127505500Y-67710468D02*
X127505500Y-56884550D01*
X135777166Y-78966000D02*
X135382834Y-78966000D01*
X127505500Y-56884550D02*
X129430050Y-54960000D01*
X138616525Y-78930000D02*
X135813166Y-78930000D01*
X135382834Y-78966000D02*
X135346834Y-78930000D01*
X138673263Y-78986737D02*
X138616525Y-78930000D01*
X134860000Y-78530000D02*
X134860000Y-75064968D01*
%TO.N,+BATT*%
X137590000Y-79845000D02*
X138490000Y-80745000D01*
X138490000Y-80745000D02*
X138490000Y-80840000D01*
X138490000Y-80840000D02*
X138480000Y-80850000D01*
%TO.N,CE*%
X140120000Y-81120000D02*
X140235000Y-81120000D01*
X139131398Y-81106288D02*
X140106288Y-81106288D01*
X140106288Y-81106288D02*
X140120000Y-81120000D01*
%TO.N,+BATT*%
X135580000Y-78490000D02*
X135580000Y-76070000D01*
X135580000Y-76070000D02*
X136930000Y-74720000D01*
X136930000Y-74720000D02*
X137881704Y-74720000D01*
X137881704Y-74720000D02*
X138045852Y-74555852D01*
X138045852Y-74555852D02*
X138045852Y-73585900D01*
X136484156Y-73094156D02*
X136975900Y-73585900D01*
X133295940Y-74210844D02*
X132979156Y-74210844D01*
X133572548Y-74487452D02*
X133295940Y-74210844D01*
X136975900Y-73585900D02*
X138045852Y-73585900D01*
X134054124Y-78564124D02*
X134358000Y-78260248D01*
X134358000Y-78260248D02*
X134358000Y-75272904D01*
X134358000Y-75272904D02*
X133572548Y-74487452D01*
%TO.N,GPIO1*%
X142505374Y-83478623D02*
X143810000Y-83478623D01*
X140970000Y-87650000D02*
X140970000Y-89070000D01*
X135202500Y-93860000D02*
X135192500Y-93870000D01*
X140970000Y-89695000D02*
X140450000Y-90215000D01*
X136180000Y-93860000D02*
X135202500Y-93860000D01*
X140970000Y-89070000D02*
X140970000Y-89695000D01*
X143600000Y-85020000D02*
X140970000Y-87650000D01*
%TO.N,GPIO0*%
X142980374Y-84428622D02*
X142651378Y-84428622D01*
X142651378Y-84428622D02*
X142010000Y-85070000D01*
%TO.N,UART-RX*%
X152460000Y-76615000D02*
X152650000Y-76425000D01*
X152460000Y-77375000D02*
X152460000Y-76615000D01*
%TO.N,Net-(U5-EN1)*%
X134800000Y-86810000D02*
X134800000Y-86725000D01*
X132504124Y-89105876D02*
X134800000Y-86810000D01*
%TO.N,Net-(U5-EN2)*%
X132009124Y-88610876D02*
X133288445Y-87331555D01*
X133288445Y-87331555D02*
X133288445Y-86606480D01*
%TO.N,Net-(C2-Pad2)*%
X130620000Y-88240000D02*
X133070000Y-90690000D01*
X130620000Y-82040000D02*
X130620000Y-88240000D01*
X132680000Y-79980000D02*
X130620000Y-82040000D01*
X134609000Y-78681000D02*
X133310000Y-79980000D01*
X127240000Y-67799936D02*
X134609000Y-75168936D01*
X134609000Y-75168936D02*
X134609000Y-78681000D01*
X127240000Y-56350000D02*
X127240000Y-67799936D01*
X128230000Y-55360000D02*
X127240000Y-56350000D01*
X128230000Y-54779777D02*
X128230000Y-55360000D01*
X129025777Y-53984000D02*
X128230000Y-54779777D01*
X132450000Y-55349717D02*
X131084283Y-53984000D01*
X131084283Y-53984000D02*
X129025777Y-53984000D01*
X133070000Y-90690000D02*
X150710000Y-90690000D01*
X133310000Y-79980000D02*
X132680000Y-79980000D01*
%TO.N,Net-(U1-VDDA)*%
X138936876Y-88763710D02*
X138550087Y-88376921D01*
X138160000Y-89740000D02*
X138354918Y-89740000D01*
X138354918Y-89740000D02*
X138936876Y-89158042D01*
X138936876Y-89158042D02*
X138936876Y-88763710D01*
X138550087Y-88376921D02*
X137492317Y-88376921D01*
%TO.N,Net-(D1-K)*%
X138460876Y-88960876D02*
X137130876Y-88960876D01*
X137130876Y-88960876D02*
X136880000Y-88710000D01*
X136880000Y-88710000D02*
X136880000Y-87050000D01*
%TO.N,Net-(BLUE1-K)*%
X134982874Y-87692126D02*
X135083624Y-87692126D01*
X135083624Y-87692126D02*
X135705001Y-87070749D01*
D28*
%TO.N,USB_D+*%
X162105000Y-116270000D02*
X162105000Y-118150000D01*
X162105000Y-118150000D02*
X162150000Y-118195000D01*
D27*
%TO.N,+BATT*%
X163262500Y-112290000D02*
X163262500Y-113902500D01*
X163262500Y-113902500D02*
X163165000Y-114000000D01*
%TO.N,VBUS*%
X165300000Y-116489968D02*
X163435016Y-114624984D01*
X162974984Y-114624984D02*
X162350000Y-114000000D01*
X165300000Y-118195000D02*
X165300000Y-116489968D01*
X163435016Y-114624984D02*
X162974984Y-114624984D01*
%TO.N,Net-(J1-CC2)*%
X158327500Y-116350000D02*
X160035000Y-116350000D01*
X160035000Y-116350000D02*
X161150000Y-117465000D01*
X161150000Y-117465000D02*
X161150000Y-118195000D01*
%TO.N,Net-(U1-VDDA)*%
X155542500Y-118740000D02*
X155542500Y-117260000D01*
X155542500Y-117260000D02*
X155572500Y-117230000D01*
%TO.N,+BATT*%
X156387500Y-117230000D02*
X156387500Y-117237500D01*
X156387500Y-117237500D02*
X156357500Y-117267500D01*
X156357500Y-117267500D02*
X156357500Y-118740000D01*
X156375000Y-116320000D02*
X156375000Y-117217500D01*
X156375000Y-117217500D02*
X156387500Y-117230000D01*
X157512500Y-116350000D02*
X156405000Y-116350000D01*
X156405000Y-116350000D02*
X156375000Y-116320000D01*
X157405000Y-114550000D02*
X157405000Y-113707500D01*
X157405000Y-113707500D02*
X157452500Y-113660000D01*
X157512500Y-116350000D02*
X157512500Y-114657500D01*
X157512500Y-114657500D02*
X157405000Y-114550000D01*
X163165000Y-114000000D02*
X167220000Y-118055000D01*
X167220000Y-118055000D02*
X167220000Y-118775000D01*
D28*
%TO.N,USB_D-*%
X163380000Y-116215000D02*
X163380000Y-117130000D01*
D27*
%TO.N,+BATT*%
X129765112Y-85023360D02*
X130145001Y-85403249D01*
X128066640Y-85023360D02*
X129765112Y-85023360D01*
%TO.N,+3.3V*%
X127446624Y-83375876D02*
X128932500Y-81890000D01*
X126774124Y-83375876D02*
X127446624Y-83375876D01*
%TO.N,Net-(U5-ILIM)*%
X141284359Y-84718696D02*
X140473696Y-84718696D01*
X140473696Y-84718696D02*
X139285000Y-83530000D01*
%TO.N,+BATT*%
X149140000Y-71000000D02*
X148971316Y-71000000D01*
X148971316Y-71000000D02*
X148573142Y-70601826D01*
X158634092Y-60540876D02*
X149052484Y-70122484D01*
X158950876Y-60540876D02*
X158634092Y-60540876D01*
X148573142Y-70601826D02*
X148573142Y-74070703D01*
X149052484Y-70122484D02*
X148573142Y-70601826D01*
%TO.N,Net-(U5-TS)*%
X131800000Y-85565000D02*
X131665000Y-85430000D01*
X131665000Y-85430000D02*
X131665000Y-83370000D01*
%TO.N,Net-(U1-VDDA)*%
X141229124Y-84020876D02*
X141296377Y-83953623D01*
X141296377Y-83953623D02*
X149805374Y-83953623D01*
X137493260Y-88375978D02*
X137492317Y-88376921D01*
X137493260Y-86712487D02*
X137493260Y-88375978D01*
%TO.N,+3.3V*%
X138942640Y-71280000D02*
X138950000Y-71280000D01*
X137475000Y-72747640D02*
X138942640Y-71280000D01*
%TO.N,Net-(U2-OUTL)*%
X143560000Y-64500000D02*
X141280000Y-66780000D01*
X165631624Y-81653376D02*
X165059124Y-81080876D01*
X144617500Y-64500000D02*
X143560000Y-64500000D01*
X165059124Y-81080876D02*
X165059124Y-80160876D01*
%TO.N,SCL*%
X134230876Y-74080876D02*
X127756500Y-67606500D01*
X137550876Y-74080876D02*
X134230876Y-74080876D01*
X127756500Y-67606500D02*
X127756500Y-59173550D01*
X127756500Y-59173550D02*
X129430050Y-57500000D01*
%TO.N,DAT3*%
X157644156Y-60110940D02*
X157644156Y-59794156D01*
X138620000Y-74440000D02*
X142271124Y-70788876D01*
X146966220Y-70788876D02*
X157644156Y-60110940D01*
X142271124Y-70788876D02*
X146966220Y-70788876D01*
%TO.N,CLK*%
X147070188Y-71039876D02*
X144845512Y-71039876D01*
X142622782Y-73390057D02*
X140158232Y-75854607D01*
X140158232Y-76248939D02*
X140612575Y-76703282D01*
X158381640Y-59411640D02*
X158381640Y-59728424D01*
X156655032Y-61455032D02*
X147070188Y-71039876D01*
X140612575Y-76703282D02*
X140890230Y-76703282D01*
X144845512Y-71039876D02*
X144000057Y-71885331D01*
X144000057Y-71885331D02*
X144000057Y-73390057D01*
X140158232Y-75854607D02*
X140158232Y-76248939D01*
X158381640Y-59728424D02*
X156655032Y-61455032D01*
X144000057Y-73390057D02*
X142622782Y-73390057D01*
%TO.N,SDIO*%
X145042678Y-71515876D02*
X146949156Y-71515876D01*
X146949156Y-71515876D02*
X159040933Y-59424099D01*
X159040933Y-59424099D02*
X158877067Y-59260233D01*
X158877067Y-59260233D02*
X158877067Y-58865901D01*
X159155901Y-58587067D02*
X159240000Y-58587067D01*
X158877067Y-58865901D02*
X159155901Y-58587067D01*
X159240000Y-58587067D02*
X159240000Y-55300000D01*
%TO.N,DAT0*%
X140634232Y-76051773D02*
X140718090Y-75967915D01*
X140718090Y-75967915D02*
X141114230Y-75967915D01*
X141114230Y-75967915D02*
X142080505Y-75001640D01*
X142080505Y-75001640D02*
X143061640Y-75001640D01*
X143061640Y-75001640D02*
X144001640Y-74061640D01*
X144001640Y-74061640D02*
X144001640Y-73743442D01*
X144476958Y-73268124D02*
X145551876Y-73268124D01*
X145551876Y-73268124D02*
X159353067Y-59466933D01*
X159353067Y-59466933D02*
X159353067Y-59063067D01*
X144001640Y-73743442D02*
X144476958Y-73268124D01*
%TO.N,Net-(U5-ISET)*%
X134690000Y-80795000D02*
X134690000Y-79865000D01*
X134690000Y-79865000D02*
X134710000Y-79845000D01*
%TO.N,Net-(U1-PA2)*%
X141365230Y-77455935D02*
X141365230Y-76071883D01*
X142470000Y-75830447D02*
X142587801Y-75830447D01*
X142155231Y-77734769D02*
X141644064Y-77734769D01*
X141365230Y-76071883D02*
X141831666Y-75605447D01*
X143240000Y-76650000D02*
X142155231Y-77734769D01*
X141831666Y-75605447D02*
X142245000Y-75605447D01*
X142245000Y-75605447D02*
X142470000Y-75830447D01*
X141644064Y-77734769D02*
X141365230Y-77455935D01*
X142587801Y-75830447D02*
X144674124Y-73744124D01*
D28*
%TO.N,USB_D-*%
X162650000Y-117340000D02*
X162860000Y-117130000D01*
X162650000Y-118195000D02*
X162650000Y-117340000D01*
X162860000Y-117130000D02*
X163380000Y-117130000D01*
X163380000Y-117130000D02*
X163650000Y-117400000D01*
X163650000Y-117400000D02*
X163650000Y-118195000D01*
%TO.N,USB_D+*%
X163150000Y-118880000D02*
X162820000Y-119210000D01*
X162385000Y-119210000D02*
X162150000Y-118975000D01*
X163150000Y-118195000D02*
X163150000Y-118880000D01*
X162820000Y-119210000D02*
X162385000Y-119210000D01*
X162150000Y-118975000D02*
X162150000Y-118195000D01*
D27*
%TO.N,+BATT*%
X167220000Y-122945000D02*
X158580000Y-122945000D01*
X167220000Y-118775000D02*
X166680000Y-118775000D01*
X166680000Y-118775000D02*
X166100000Y-118195000D01*
X159700000Y-118195000D02*
X159160000Y-118195000D01*
X159160000Y-118195000D02*
X158580000Y-118775000D01*
X158580000Y-118775000D02*
X158580000Y-122945000D01*
X167220000Y-118775000D02*
X167220000Y-122945000D01*
%TO.N,Net-(U2-INL+)*%
X157810597Y-87978035D02*
X158305217Y-87483415D01*
X157228392Y-86688392D02*
X156889442Y-86688392D01*
X156933869Y-87978035D02*
X157810597Y-87978035D01*
X158305217Y-87483415D02*
X158305217Y-87165217D01*
X158305217Y-87165217D02*
X159175217Y-86295217D01*
X157487640Y-86429144D02*
X157228392Y-86688392D01*
X159175217Y-86295217D02*
X163173949Y-86295217D01*
X163173949Y-86295217D02*
X164440000Y-85029166D01*
X164440000Y-85029166D02*
X164440000Y-84140100D01*
X156464000Y-87113834D02*
X156464000Y-87508166D01*
X156464000Y-87508166D02*
X156933869Y-87978035D01*
X156889442Y-86688392D02*
X156464000Y-87113834D01*
X157487640Y-85375000D02*
X157487640Y-86429144D01*
%TO.N,Net-(U3-GBUF)*%
X163665000Y-81910000D02*
X163549376Y-82025624D01*
X159014376Y-82025624D02*
X151975624Y-82025624D01*
X163549376Y-82025624D02*
X159014376Y-82025624D01*
X151975624Y-82025624D02*
X151350000Y-81400000D01*
%TO.N,Net-(U2-INR-)*%
X161190000Y-82527624D02*
X163506000Y-84843624D01*
X151011284Y-82527624D02*
X161190000Y-82527624D01*
X163506000Y-84843624D02*
X163506000Y-85290000D01*
X150787285Y-82751623D02*
X151011284Y-82527624D01*
%TO.N,Net-(U2-INR+)*%
X161586624Y-82276624D02*
X163950000Y-84640000D01*
X149498376Y-82276624D02*
X161586624Y-82276624D01*
%TO.N,+2V5*%
X163665000Y-81150000D02*
X160610000Y-81150000D01*
X160610000Y-81150000D02*
X160479454Y-81280546D01*
%TO.N,+3.3V*%
X167250000Y-81680000D02*
X165220594Y-79650594D01*
X165220594Y-79650594D02*
X157364579Y-79650594D01*
%TO.N,+BATT*%
X159160000Y-85955466D02*
X157613431Y-87502035D01*
X159160000Y-85160001D02*
X159160000Y-85955466D01*
X144142500Y-51100000D02*
X149535000Y-51100000D01*
X149535000Y-51100000D02*
X149565000Y-51070000D01*
X144142500Y-51100000D02*
X141892783Y-53349717D01*
X141892783Y-53349717D02*
X139850000Y-53349717D01*
%TO.N,Net-(C1-Pad2)*%
X139850000Y-64660000D02*
X139860000Y-64670000D01*
X139850000Y-62749717D02*
X139850000Y-64660000D01*
%TO.N,+3.3V*%
X156725240Y-80289933D02*
X157364579Y-79650594D01*
X156725240Y-80354759D02*
X156725240Y-80289933D01*
%TO.N,GPIO4*%
X156940000Y-87311000D02*
X156960752Y-87311000D01*
X156960752Y-87311000D02*
X158636751Y-85635001D01*
X147411496Y-85635000D02*
X148403250Y-86626754D01*
X147383246Y-85635000D02*
X147411496Y-85635000D01*
%TO.N,GPIO5*%
X149033249Y-86585000D02*
X148083249Y-85635000D01*
X149469997Y-86585000D02*
X149033249Y-86585000D01*
%TO.N,GPIO6*%
X150143249Y-85635001D02*
X150143249Y-86558249D01*
X150143249Y-86558249D02*
X150170000Y-86585000D01*
%TO.N,UART-TX*%
X142512983Y-76587017D02*
X141841230Y-77258769D01*
%TD*%
M02*
