%TF.GenerationSoftware,KiCad,Pcbnew,9.0.6*%
%TF.CreationDate,2025-12-07T23:37:29-06:00*%
%TF.ProjectId,Tony's MP3 Player,546f6e79-2773-4204-9d50-3320506c6179,rev?*%
%TF.SameCoordinates,Original*%
%TF.FileFunction,Legend,Bot*%
%TF.FilePolarity,Positive*%
%FSLAX46Y46*%
G04 Gerber Fmt 4.6, Leading zero omitted, Abs format (unit mm)*
G04 Created by KiCad (PCBNEW 9.0.6) date 2025-12-07 23:37:29*
%MOMM*%
%LPD*%
G01*
G04 APERTURE LIST*
%ADD10C,0.150000*%
%ADD11C,0.120000*%
%ADD12C,0.254000*%
G04 APERTURE END LIST*
D10*
X163400357Y-115409580D02*
X163447976Y-115457200D01*
X163447976Y-115457200D02*
X163590833Y-115504819D01*
X163590833Y-115504819D02*
X163686071Y-115504819D01*
X163686071Y-115504819D02*
X163828928Y-115457200D01*
X163828928Y-115457200D02*
X163924166Y-115361961D01*
X163924166Y-115361961D02*
X163971785Y-115266723D01*
X163971785Y-115266723D02*
X164019404Y-115076247D01*
X164019404Y-115076247D02*
X164019404Y-114933390D01*
X164019404Y-114933390D02*
X163971785Y-114742914D01*
X163971785Y-114742914D02*
X163924166Y-114647676D01*
X163924166Y-114647676D02*
X163828928Y-114552438D01*
X163828928Y-114552438D02*
X163686071Y-114504819D01*
X163686071Y-114504819D02*
X163590833Y-114504819D01*
X163590833Y-114504819D02*
X163447976Y-114552438D01*
X163447976Y-114552438D02*
X163400357Y-114600057D01*
X163067023Y-114504819D02*
X162447976Y-114504819D01*
X162447976Y-114504819D02*
X162781309Y-114885771D01*
X162781309Y-114885771D02*
X162638452Y-114885771D01*
X162638452Y-114885771D02*
X162543214Y-114933390D01*
X162543214Y-114933390D02*
X162495595Y-114981009D01*
X162495595Y-114981009D02*
X162447976Y-115076247D01*
X162447976Y-115076247D02*
X162447976Y-115314342D01*
X162447976Y-115314342D02*
X162495595Y-115409580D01*
X162495595Y-115409580D02*
X162543214Y-115457200D01*
X162543214Y-115457200D02*
X162638452Y-115504819D01*
X162638452Y-115504819D02*
X162924166Y-115504819D01*
X162924166Y-115504819D02*
X163019404Y-115457200D01*
X163019404Y-115457200D02*
X163067023Y-115409580D01*
X161495595Y-115504819D02*
X162067023Y-115504819D01*
X161781309Y-115504819D02*
X161781309Y-114504819D01*
X161781309Y-114504819D02*
X161876547Y-114647676D01*
X161876547Y-114647676D02*
X161971785Y-114742914D01*
X161971785Y-114742914D02*
X162067023Y-114790533D01*
X165193809Y-113794819D02*
X165527142Y-113318628D01*
X165765237Y-113794819D02*
X165765237Y-112794819D01*
X165765237Y-112794819D02*
X165384285Y-112794819D01*
X165384285Y-112794819D02*
X165289047Y-112842438D01*
X165289047Y-112842438D02*
X165241428Y-112890057D01*
X165241428Y-112890057D02*
X165193809Y-112985295D01*
X165193809Y-112985295D02*
X165193809Y-113128152D01*
X165193809Y-113128152D02*
X165241428Y-113223390D01*
X165241428Y-113223390D02*
X165289047Y-113271009D01*
X165289047Y-113271009D02*
X165384285Y-113318628D01*
X165384285Y-113318628D02*
X165765237Y-113318628D01*
X164241428Y-113794819D02*
X164812856Y-113794819D01*
X164527142Y-113794819D02*
X164527142Y-112794819D01*
X164527142Y-112794819D02*
X164622380Y-112937676D01*
X164622380Y-112937676D02*
X164717618Y-113032914D01*
X164717618Y-113032914D02*
X164812856Y-113080533D01*
X163622380Y-112794819D02*
X163527142Y-112794819D01*
X163527142Y-112794819D02*
X163431904Y-112842438D01*
X163431904Y-112842438D02*
X163384285Y-112890057D01*
X163384285Y-112890057D02*
X163336666Y-112985295D01*
X163336666Y-112985295D02*
X163289047Y-113175771D01*
X163289047Y-113175771D02*
X163289047Y-113413866D01*
X163289047Y-113413866D02*
X163336666Y-113604342D01*
X163336666Y-113604342D02*
X163384285Y-113699580D01*
X163384285Y-113699580D02*
X163431904Y-113747200D01*
X163431904Y-113747200D02*
X163527142Y-113794819D01*
X163527142Y-113794819D02*
X163622380Y-113794819D01*
X163622380Y-113794819D02*
X163717618Y-113747200D01*
X163717618Y-113747200D02*
X163765237Y-113699580D01*
X163765237Y-113699580D02*
X163812856Y-113604342D01*
X163812856Y-113604342D02*
X163860475Y-113413866D01*
X163860475Y-113413866D02*
X163860475Y-113175771D01*
X163860475Y-113175771D02*
X163812856Y-112985295D01*
X163812856Y-112985295D02*
X163765237Y-112890057D01*
X163765237Y-112890057D02*
X163717618Y-112842438D01*
X163717618Y-112842438D02*
X163622380Y-112794819D01*
X162860475Y-113794819D02*
X162860475Y-112794819D01*
X162765237Y-113413866D02*
X162479523Y-113794819D01*
X162479523Y-113128152D02*
X162860475Y-113509104D01*
X161527142Y-113794819D02*
X162098570Y-113794819D01*
X161812856Y-113794819D02*
X161812856Y-112794819D01*
X161812856Y-112794819D02*
X161908094Y-112937676D01*
X161908094Y-112937676D02*
X162003332Y-113032914D01*
X162003332Y-113032914D02*
X162098570Y-113080533D01*
X156592857Y-118049580D02*
X156640476Y-118097200D01*
X156640476Y-118097200D02*
X156783333Y-118144819D01*
X156783333Y-118144819D02*
X156878571Y-118144819D01*
X156878571Y-118144819D02*
X157021428Y-118097200D01*
X157021428Y-118097200D02*
X157116666Y-118001961D01*
X157116666Y-118001961D02*
X157164285Y-117906723D01*
X157164285Y-117906723D02*
X157211904Y-117716247D01*
X157211904Y-117716247D02*
X157211904Y-117573390D01*
X157211904Y-117573390D02*
X157164285Y-117382914D01*
X157164285Y-117382914D02*
X157116666Y-117287676D01*
X157116666Y-117287676D02*
X157021428Y-117192438D01*
X157021428Y-117192438D02*
X156878571Y-117144819D01*
X156878571Y-117144819D02*
X156783333Y-117144819D01*
X156783333Y-117144819D02*
X156640476Y-117192438D01*
X156640476Y-117192438D02*
X156592857Y-117240057D01*
X156211904Y-117240057D02*
X156164285Y-117192438D01*
X156164285Y-117192438D02*
X156069047Y-117144819D01*
X156069047Y-117144819D02*
X155830952Y-117144819D01*
X155830952Y-117144819D02*
X155735714Y-117192438D01*
X155735714Y-117192438D02*
X155688095Y-117240057D01*
X155688095Y-117240057D02*
X155640476Y-117335295D01*
X155640476Y-117335295D02*
X155640476Y-117430533D01*
X155640476Y-117430533D02*
X155688095Y-117573390D01*
X155688095Y-117573390D02*
X156259523Y-118144819D01*
X156259523Y-118144819D02*
X155640476Y-118144819D01*
X155164285Y-118144819D02*
X154973809Y-118144819D01*
X154973809Y-118144819D02*
X154878571Y-118097200D01*
X154878571Y-118097200D02*
X154830952Y-118049580D01*
X154830952Y-118049580D02*
X154735714Y-117906723D01*
X154735714Y-117906723D02*
X154688095Y-117716247D01*
X154688095Y-117716247D02*
X154688095Y-117335295D01*
X154688095Y-117335295D02*
X154735714Y-117240057D01*
X154735714Y-117240057D02*
X154783333Y-117192438D01*
X154783333Y-117192438D02*
X154878571Y-117144819D01*
X154878571Y-117144819D02*
X155069047Y-117144819D01*
X155069047Y-117144819D02*
X155164285Y-117192438D01*
X155164285Y-117192438D02*
X155211904Y-117240057D01*
X155211904Y-117240057D02*
X155259523Y-117335295D01*
X155259523Y-117335295D02*
X155259523Y-117573390D01*
X155259523Y-117573390D02*
X155211904Y-117668628D01*
X155211904Y-117668628D02*
X155164285Y-117716247D01*
X155164285Y-117716247D02*
X155069047Y-117763866D01*
X155069047Y-117763866D02*
X154878571Y-117763866D01*
X154878571Y-117763866D02*
X154783333Y-117716247D01*
X154783333Y-117716247D02*
X154735714Y-117668628D01*
X154735714Y-117668628D02*
X154688095Y-117573390D01*
X156622857Y-116539580D02*
X156670476Y-116587200D01*
X156670476Y-116587200D02*
X156813333Y-116634819D01*
X156813333Y-116634819D02*
X156908571Y-116634819D01*
X156908571Y-116634819D02*
X157051428Y-116587200D01*
X157051428Y-116587200D02*
X157146666Y-116491961D01*
X157146666Y-116491961D02*
X157194285Y-116396723D01*
X157194285Y-116396723D02*
X157241904Y-116206247D01*
X157241904Y-116206247D02*
X157241904Y-116063390D01*
X157241904Y-116063390D02*
X157194285Y-115872914D01*
X157194285Y-115872914D02*
X157146666Y-115777676D01*
X157146666Y-115777676D02*
X157051428Y-115682438D01*
X157051428Y-115682438D02*
X156908571Y-115634819D01*
X156908571Y-115634819D02*
X156813333Y-115634819D01*
X156813333Y-115634819D02*
X156670476Y-115682438D01*
X156670476Y-115682438D02*
X156622857Y-115730057D01*
X156289523Y-115634819D02*
X155670476Y-115634819D01*
X155670476Y-115634819D02*
X156003809Y-116015771D01*
X156003809Y-116015771D02*
X155860952Y-116015771D01*
X155860952Y-116015771D02*
X155765714Y-116063390D01*
X155765714Y-116063390D02*
X155718095Y-116111009D01*
X155718095Y-116111009D02*
X155670476Y-116206247D01*
X155670476Y-116206247D02*
X155670476Y-116444342D01*
X155670476Y-116444342D02*
X155718095Y-116539580D01*
X155718095Y-116539580D02*
X155765714Y-116587200D01*
X155765714Y-116587200D02*
X155860952Y-116634819D01*
X155860952Y-116634819D02*
X156146666Y-116634819D01*
X156146666Y-116634819D02*
X156241904Y-116587200D01*
X156241904Y-116587200D02*
X156289523Y-116539580D01*
X155051428Y-115634819D02*
X154956190Y-115634819D01*
X154956190Y-115634819D02*
X154860952Y-115682438D01*
X154860952Y-115682438D02*
X154813333Y-115730057D01*
X154813333Y-115730057D02*
X154765714Y-115825295D01*
X154765714Y-115825295D02*
X154718095Y-116015771D01*
X154718095Y-116015771D02*
X154718095Y-116253866D01*
X154718095Y-116253866D02*
X154765714Y-116444342D01*
X154765714Y-116444342D02*
X154813333Y-116539580D01*
X154813333Y-116539580D02*
X154860952Y-116587200D01*
X154860952Y-116587200D02*
X154956190Y-116634819D01*
X154956190Y-116634819D02*
X155051428Y-116634819D01*
X155051428Y-116634819D02*
X155146666Y-116587200D01*
X155146666Y-116587200D02*
X155194285Y-116539580D01*
X155194285Y-116539580D02*
X155241904Y-116444342D01*
X155241904Y-116444342D02*
X155289523Y-116253866D01*
X155289523Y-116253866D02*
X155289523Y-116015771D01*
X155289523Y-116015771D02*
X155241904Y-115825295D01*
X155241904Y-115825295D02*
X155194285Y-115730057D01*
X155194285Y-115730057D02*
X155146666Y-115682438D01*
X155146666Y-115682438D02*
X155051428Y-115634819D01*
X157979166Y-113954819D02*
X158312499Y-113478628D01*
X158550594Y-113954819D02*
X158550594Y-112954819D01*
X158550594Y-112954819D02*
X158169642Y-112954819D01*
X158169642Y-112954819D02*
X158074404Y-113002438D01*
X158074404Y-113002438D02*
X158026785Y-113050057D01*
X158026785Y-113050057D02*
X157979166Y-113145295D01*
X157979166Y-113145295D02*
X157979166Y-113288152D01*
X157979166Y-113288152D02*
X158026785Y-113383390D01*
X158026785Y-113383390D02*
X158074404Y-113431009D01*
X158074404Y-113431009D02*
X158169642Y-113478628D01*
X158169642Y-113478628D02*
X158550594Y-113478628D01*
X157122023Y-113288152D02*
X157122023Y-113954819D01*
X157360118Y-112907200D02*
X157598213Y-113621485D01*
X157598213Y-113621485D02*
X156979166Y-113621485D01*
X161502857Y-115544819D02*
X161836190Y-115068628D01*
X162074285Y-115544819D02*
X162074285Y-114544819D01*
X162074285Y-114544819D02*
X161693333Y-114544819D01*
X161693333Y-114544819D02*
X161598095Y-114592438D01*
X161598095Y-114592438D02*
X161550476Y-114640057D01*
X161550476Y-114640057D02*
X161502857Y-114735295D01*
X161502857Y-114735295D02*
X161502857Y-114878152D01*
X161502857Y-114878152D02*
X161550476Y-114973390D01*
X161550476Y-114973390D02*
X161598095Y-115021009D01*
X161598095Y-115021009D02*
X161693333Y-115068628D01*
X161693333Y-115068628D02*
X162074285Y-115068628D01*
X160550476Y-115544819D02*
X161121904Y-115544819D01*
X160836190Y-115544819D02*
X160836190Y-114544819D01*
X160836190Y-114544819D02*
X160931428Y-114687676D01*
X160931428Y-114687676D02*
X161026666Y-114782914D01*
X161026666Y-114782914D02*
X161121904Y-114830533D01*
X159645714Y-114544819D02*
X160121904Y-114544819D01*
X160121904Y-114544819D02*
X160169523Y-115021009D01*
X160169523Y-115021009D02*
X160121904Y-114973390D01*
X160121904Y-114973390D02*
X160026666Y-114925771D01*
X160026666Y-114925771D02*
X159788571Y-114925771D01*
X159788571Y-114925771D02*
X159693333Y-114973390D01*
X159693333Y-114973390D02*
X159645714Y-115021009D01*
X159645714Y-115021009D02*
X159598095Y-115116247D01*
X159598095Y-115116247D02*
X159598095Y-115354342D01*
X159598095Y-115354342D02*
X159645714Y-115449580D01*
X159645714Y-115449580D02*
X159693333Y-115497200D01*
X159693333Y-115497200D02*
X159788571Y-115544819D01*
X159788571Y-115544819D02*
X160026666Y-115544819D01*
X160026666Y-115544819D02*
X160121904Y-115497200D01*
X160121904Y-115497200D02*
X160169523Y-115449580D01*
X158026666Y-115164819D02*
X158359999Y-114688628D01*
X158598094Y-115164819D02*
X158598094Y-114164819D01*
X158598094Y-114164819D02*
X158217142Y-114164819D01*
X158217142Y-114164819D02*
X158121904Y-114212438D01*
X158121904Y-114212438D02*
X158074285Y-114260057D01*
X158074285Y-114260057D02*
X158026666Y-114355295D01*
X158026666Y-114355295D02*
X158026666Y-114498152D01*
X158026666Y-114498152D02*
X158074285Y-114593390D01*
X158074285Y-114593390D02*
X158121904Y-114641009D01*
X158121904Y-114641009D02*
X158217142Y-114688628D01*
X158217142Y-114688628D02*
X158598094Y-114688628D01*
X157645713Y-114260057D02*
X157598094Y-114212438D01*
X157598094Y-114212438D02*
X157502856Y-114164819D01*
X157502856Y-114164819D02*
X157264761Y-114164819D01*
X157264761Y-114164819D02*
X157169523Y-114212438D01*
X157169523Y-114212438D02*
X157121904Y-114260057D01*
X157121904Y-114260057D02*
X157074285Y-114355295D01*
X157074285Y-114355295D02*
X157074285Y-114450533D01*
X157074285Y-114450533D02*
X157121904Y-114593390D01*
X157121904Y-114593390D02*
X157693332Y-115164819D01*
X157693332Y-115164819D02*
X157074285Y-115164819D01*
X158086666Y-115754819D02*
X158419999Y-115278628D01*
X158658094Y-115754819D02*
X158658094Y-114754819D01*
X158658094Y-114754819D02*
X158277142Y-114754819D01*
X158277142Y-114754819D02*
X158181904Y-114802438D01*
X158181904Y-114802438D02*
X158134285Y-114850057D01*
X158134285Y-114850057D02*
X158086666Y-114945295D01*
X158086666Y-114945295D02*
X158086666Y-115088152D01*
X158086666Y-115088152D02*
X158134285Y-115183390D01*
X158134285Y-115183390D02*
X158181904Y-115231009D01*
X158181904Y-115231009D02*
X158277142Y-115278628D01*
X158277142Y-115278628D02*
X158658094Y-115278628D01*
X157229523Y-114754819D02*
X157419999Y-114754819D01*
X157419999Y-114754819D02*
X157515237Y-114802438D01*
X157515237Y-114802438D02*
X157562856Y-114850057D01*
X157562856Y-114850057D02*
X157658094Y-114992914D01*
X157658094Y-114992914D02*
X157705713Y-115183390D01*
X157705713Y-115183390D02*
X157705713Y-115564342D01*
X157705713Y-115564342D02*
X157658094Y-115659580D01*
X157658094Y-115659580D02*
X157610475Y-115707200D01*
X157610475Y-115707200D02*
X157515237Y-115754819D01*
X157515237Y-115754819D02*
X157324761Y-115754819D01*
X157324761Y-115754819D02*
X157229523Y-115707200D01*
X157229523Y-115707200D02*
X157181904Y-115659580D01*
X157181904Y-115659580D02*
X157134285Y-115564342D01*
X157134285Y-115564342D02*
X157134285Y-115326247D01*
X157134285Y-115326247D02*
X157181904Y-115231009D01*
X157181904Y-115231009D02*
X157229523Y-115183390D01*
X157229523Y-115183390D02*
X157324761Y-115135771D01*
X157324761Y-115135771D02*
X157515237Y-115135771D01*
X157515237Y-115135771D02*
X157610475Y-115183390D01*
X157610475Y-115183390D02*
X157658094Y-115231009D01*
X157658094Y-115231009D02*
X157705713Y-115326247D01*
X164884819Y-115640833D02*
X164408628Y-115307500D01*
X164884819Y-115069405D02*
X163884819Y-115069405D01*
X163884819Y-115069405D02*
X163884819Y-115450357D01*
X163884819Y-115450357D02*
X163932438Y-115545595D01*
X163932438Y-115545595D02*
X163980057Y-115593214D01*
X163980057Y-115593214D02*
X164075295Y-115640833D01*
X164075295Y-115640833D02*
X164218152Y-115640833D01*
X164218152Y-115640833D02*
X164313390Y-115593214D01*
X164313390Y-115593214D02*
X164361009Y-115545595D01*
X164361009Y-115545595D02*
X164408628Y-115450357D01*
X164408628Y-115450357D02*
X164408628Y-115069405D01*
X163884819Y-115974167D02*
X163884819Y-116593214D01*
X163884819Y-116593214D02*
X164265771Y-116259881D01*
X164265771Y-116259881D02*
X164265771Y-116402738D01*
X164265771Y-116402738D02*
X164313390Y-116497976D01*
X164313390Y-116497976D02*
X164361009Y-116545595D01*
X164361009Y-116545595D02*
X164456247Y-116593214D01*
X164456247Y-116593214D02*
X164694342Y-116593214D01*
X164694342Y-116593214D02*
X164789580Y-116545595D01*
X164789580Y-116545595D02*
X164837200Y-116497976D01*
X164837200Y-116497976D02*
X164884819Y-116402738D01*
X164884819Y-116402738D02*
X164884819Y-116117024D01*
X164884819Y-116117024D02*
X164837200Y-116021786D01*
X164837200Y-116021786D02*
X164789580Y-115974167D01*
X160926190Y-106008628D02*
X160926190Y-106484819D01*
X161259523Y-105484819D02*
X160926190Y-106008628D01*
X160926190Y-106008628D02*
X160592857Y-105484819D01*
X159735714Y-106484819D02*
X160307142Y-106484819D01*
X160021428Y-106484819D02*
X160021428Y-105484819D01*
X160021428Y-105484819D02*
X160116666Y-105627676D01*
X160116666Y-105627676D02*
X160211904Y-105722914D01*
X160211904Y-105722914D02*
X160307142Y-105770533D01*
X162340357Y-117774819D02*
X162673690Y-117298628D01*
X162911785Y-117774819D02*
X162911785Y-116774819D01*
X162911785Y-116774819D02*
X162530833Y-116774819D01*
X162530833Y-116774819D02*
X162435595Y-116822438D01*
X162435595Y-116822438D02*
X162387976Y-116870057D01*
X162387976Y-116870057D02*
X162340357Y-116965295D01*
X162340357Y-116965295D02*
X162340357Y-117108152D01*
X162340357Y-117108152D02*
X162387976Y-117203390D01*
X162387976Y-117203390D02*
X162435595Y-117251009D01*
X162435595Y-117251009D02*
X162530833Y-117298628D01*
X162530833Y-117298628D02*
X162911785Y-117298628D01*
X161435595Y-116774819D02*
X161911785Y-116774819D01*
X161911785Y-116774819D02*
X161959404Y-117251009D01*
X161959404Y-117251009D02*
X161911785Y-117203390D01*
X161911785Y-117203390D02*
X161816547Y-117155771D01*
X161816547Y-117155771D02*
X161578452Y-117155771D01*
X161578452Y-117155771D02*
X161483214Y-117203390D01*
X161483214Y-117203390D02*
X161435595Y-117251009D01*
X161435595Y-117251009D02*
X161387976Y-117346247D01*
X161387976Y-117346247D02*
X161387976Y-117584342D01*
X161387976Y-117584342D02*
X161435595Y-117679580D01*
X161435595Y-117679580D02*
X161483214Y-117727200D01*
X161483214Y-117727200D02*
X161578452Y-117774819D01*
X161578452Y-117774819D02*
X161816547Y-117774819D01*
X161816547Y-117774819D02*
X161911785Y-117727200D01*
X161911785Y-117727200D02*
X161959404Y-117679580D01*
X160768928Y-116774819D02*
X160673690Y-116774819D01*
X160673690Y-116774819D02*
X160578452Y-116822438D01*
X160578452Y-116822438D02*
X160530833Y-116870057D01*
X160530833Y-116870057D02*
X160483214Y-116965295D01*
X160483214Y-116965295D02*
X160435595Y-117155771D01*
X160435595Y-117155771D02*
X160435595Y-117393866D01*
X160435595Y-117393866D02*
X160483214Y-117584342D01*
X160483214Y-117584342D02*
X160530833Y-117679580D01*
X160530833Y-117679580D02*
X160578452Y-117727200D01*
X160578452Y-117727200D02*
X160673690Y-117774819D01*
X160673690Y-117774819D02*
X160768928Y-117774819D01*
X160768928Y-117774819D02*
X160864166Y-117727200D01*
X160864166Y-117727200D02*
X160911785Y-117679580D01*
X160911785Y-117679580D02*
X160959404Y-117584342D01*
X160959404Y-117584342D02*
X161007023Y-117393866D01*
X161007023Y-117393866D02*
X161007023Y-117155771D01*
X161007023Y-117155771D02*
X160959404Y-116965295D01*
X160959404Y-116965295D02*
X160911785Y-116870057D01*
X160911785Y-116870057D02*
X160864166Y-116822438D01*
X160864166Y-116822438D02*
X160768928Y-116774819D01*
X167424819Y-98906666D02*
X168139104Y-98906666D01*
X168139104Y-98906666D02*
X168281961Y-98859047D01*
X168281961Y-98859047D02*
X168377200Y-98763809D01*
X168377200Y-98763809D02*
X168424819Y-98620952D01*
X168424819Y-98620952D02*
X168424819Y-98525714D01*
X167758152Y-99811428D02*
X168424819Y-99811428D01*
X167377200Y-99573333D02*
X168091485Y-99335238D01*
X168091485Y-99335238D02*
X168091485Y-99954285D01*
X136483333Y-68779536D02*
X136483333Y-69493821D01*
X136483333Y-69493821D02*
X136530952Y-69636678D01*
X136530952Y-69636678D02*
X136626190Y-69731917D01*
X136626190Y-69731917D02*
X136769047Y-69779536D01*
X136769047Y-69779536D02*
X136864285Y-69779536D01*
X136054761Y-68874774D02*
X136007142Y-68827155D01*
X136007142Y-68827155D02*
X135911904Y-68779536D01*
X135911904Y-68779536D02*
X135673809Y-68779536D01*
X135673809Y-68779536D02*
X135578571Y-68827155D01*
X135578571Y-68827155D02*
X135530952Y-68874774D01*
X135530952Y-68874774D02*
X135483333Y-68970012D01*
X135483333Y-68970012D02*
X135483333Y-69065250D01*
X135483333Y-69065250D02*
X135530952Y-69208107D01*
X135530952Y-69208107D02*
X136102380Y-69779536D01*
X136102380Y-69779536D02*
X135483333Y-69779536D01*
X163233333Y-115579819D02*
X163233333Y-116294104D01*
X163233333Y-116294104D02*
X163280952Y-116436961D01*
X163280952Y-116436961D02*
X163376190Y-116532200D01*
X163376190Y-116532200D02*
X163519047Y-116579819D01*
X163519047Y-116579819D02*
X163614285Y-116579819D01*
X162233333Y-116579819D02*
X162804761Y-116579819D01*
X162519047Y-116579819D02*
X162519047Y-115579819D01*
X162519047Y-115579819D02*
X162614285Y-115722676D01*
X162614285Y-115722676D02*
X162709523Y-115817914D01*
X162709523Y-115817914D02*
X162804761Y-115865533D01*
D11*
%TO.C,Y1*%
X166735000Y-106980000D02*
X166735000Y-111180000D01*
X162190000Y-106970000D02*
X158710000Y-106970000D01*
X162190000Y-111190000D02*
X158710000Y-111190000D01*
%TO.C,J4*%
X166880000Y-103300000D02*
X159060000Y-103300000D01*
X165280000Y-103300000D02*
X165280000Y-102380000D01*
X159060000Y-103300000D02*
X159060000Y-95180000D01*
X162920000Y-102540000D02*
X161320000Y-102540000D01*
X161320000Y-102540000D02*
X161320000Y-101540000D01*
X166880000Y-102380000D02*
X166880000Y-103300000D01*
X165280000Y-102380000D02*
X166880000Y-102380000D01*
X165280000Y-102100000D02*
X165280000Y-102380000D01*
X165280000Y-102100000D02*
X166495000Y-102100000D01*
X161320000Y-102040000D02*
X159060000Y-102040000D01*
X162920000Y-101540000D02*
X162920000Y-102540000D01*
X161320000Y-101540000D02*
X162920000Y-101540000D01*
X161320000Y-101540000D02*
X159060000Y-101540000D01*
X163420000Y-100740000D02*
X163420000Y-97740000D01*
X159060000Y-100740000D02*
X163420000Y-100740000D01*
X163420000Y-97740000D02*
X159060000Y-97740000D01*
X162920000Y-96940000D02*
X162920000Y-95940000D01*
X161320000Y-96940000D02*
X162920000Y-96940000D01*
X166880000Y-96100000D02*
X165280000Y-96100000D01*
X165280000Y-96100000D02*
X165280000Y-96380000D01*
X162920000Y-95940000D02*
X161320000Y-95940000D01*
X161320000Y-95940000D02*
X161320000Y-96940000D01*
X166880000Y-95180000D02*
X166880000Y-96100000D01*
X165280000Y-95180000D02*
X165280000Y-96100000D01*
X159060000Y-95180000D02*
X166880000Y-95180000D01*
D12*
%TO.C,J2*%
X138690000Y-65623717D02*
X136981000Y-65623717D01*
X137293000Y-50510717D02*
X137674000Y-50129717D01*
X137674000Y-50129717D02*
X137293000Y-50510717D01*
X137293000Y-48859717D02*
X137293000Y-50510717D01*
X137293000Y-50510717D02*
X136912000Y-50129717D01*
X135261000Y-48859717D02*
X135642000Y-49240717D01*
X135261000Y-48859717D02*
X134880000Y-49240717D01*
X134880000Y-49240717D02*
X135261000Y-48859717D01*
X135261000Y-50510717D02*
X135261000Y-48859717D01*
X134319000Y-65623717D02*
X133610000Y-65623717D01*
X138690000Y-65623717D02*
X139198000Y-65623717D01*
X139198000Y-65623717D02*
X139198000Y-64099717D01*
X133102000Y-56380717D02*
X133102000Y-65623717D01*
X133102000Y-65623717D02*
X133610000Y-65623717D01*
X139198000Y-60797717D02*
X139198000Y-54380717D01*
X133578500Y-51018717D02*
X133578500Y-48478717D01*
X133578500Y-48478717D02*
X138690000Y-48478717D01*
X138690000Y-48478717D02*
X138690000Y-51018717D01*
X139198000Y-51718717D02*
X139198000Y-51018717D01*
X133102000Y-51018717D02*
X133102000Y-53718717D01*
X133102000Y-51018717D02*
X139071000Y-51018717D01*
D11*
%TO.C,J1*%
X167370000Y-120035000D02*
X167370000Y-121835000D01*
X167370000Y-125545000D02*
X167370000Y-124085000D01*
X158430000Y-120035000D02*
X158430000Y-121835000D01*
X158430000Y-125545000D02*
X167370000Y-125545000D01*
X158430000Y-125545000D02*
X158430000Y-124085000D01*
%TD*%
M02*
