%TF.GenerationSoftware,KiCad,Pcbnew,9.0.6*%
%TF.CreationDate,2025-12-23T23:32:32-06:00*%
%TF.ProjectId,Tony's MP3 Player,546f6e79-2773-4204-9d50-3320506c6179,rev?*%
%TF.SameCoordinates,Original*%
%TF.FileFunction,Soldermask,Top*%
%TF.FilePolarity,Negative*%
%FSLAX46Y46*%
G04 Gerber Fmt 4.6, Leading zero omitted, Abs format (unit mm)*
G04 Created by KiCad (PCBNEW 9.0.6) date 2025-12-23 23:32:32*
%MOMM*%
%LPD*%
G01*
G04 APERTURE LIST*
G04 Aperture macros list*
%AMRoundRect*
0 Rectangle with rounded corners*
0 $1 Rounding radius*
0 $2 $3 $4 $5 $6 $7 $8 $9 X,Y pos of 4 corners*
0 Add a 4 corners polygon primitive as box body*
4,1,4,$2,$3,$4,$5,$6,$7,$8,$9,$2,$3,0*
0 Add four circle primitives for the rounded corners*
1,1,$1+$1,$2,$3*
1,1,$1+$1,$4,$5*
1,1,$1+$1,$6,$7*
1,1,$1+$1,$8,$9*
0 Add four rect primitives between the rounded corners*
20,1,$1+$1,$2,$3,$4,$5,0*
20,1,$1+$1,$4,$5,$6,$7,0*
20,1,$1+$1,$6,$7,$8,$9,0*
20,1,$1+$1,$8,$9,$2,$3,0*%
%AMHorizOval*
0 Thick line with rounded ends*
0 $1 width*
0 $2 $3 position (X,Y) of the first rounded end (center of the circle)*
0 $4 $5 position (X,Y) of the second rounded end (center of the circle)*
0 Add line between two ends*
20,1,$1,$2,$3,$4,$5,0*
0 Add two circle primitives to create the rounded ends*
1,1,$1,$2,$3*
1,1,$1,$4,$5*%
G04 Aperture macros list end*
%ADD10RoundRect,0.100000X0.100000X-0.217500X0.100000X0.217500X-0.100000X0.217500X-0.100000X-0.217500X0*%
%ADD11RoundRect,0.100000X-0.217500X-0.100000X0.217500X-0.100000X0.217500X0.100000X-0.217500X0.100000X0*%
%ADD12RoundRect,0.250000X0.750000X-0.750000X0.750000X0.750000X-0.750000X0.750000X-0.750000X-0.750000X0*%
%ADD13C,2.000000*%
%ADD14RoundRect,0.100000X-0.100000X0.217500X-0.100000X-0.217500X0.100000X-0.217500X0.100000X0.217500X0*%
%ADD15RoundRect,0.375000X-0.625000X-0.375000X0.625000X-0.375000X0.625000X0.375000X-0.625000X0.375000X0*%
%ADD16RoundRect,0.500000X-0.500000X-1.400000X0.500000X-1.400000X0.500000X1.400000X-0.500000X1.400000X0*%
%ADD17RoundRect,0.287778X-0.489222X-0.714222X0.489222X-0.714222X0.489222X0.714222X-0.489222X0.714222X0*%
%ADD18RoundRect,0.100000X0.217500X0.100000X-0.217500X0.100000X-0.217500X-0.100000X0.217500X-0.100000X0*%
%ADD19RoundRect,0.100000X-0.224506X0.083085X0.083085X-0.224506X0.224506X-0.083085X-0.083085X0.224506X0*%
%ADD20RoundRect,0.100000X0.224506X-0.083085X-0.083085X0.224506X-0.224506X0.083085X0.083085X-0.224506X0*%
%ADD21HorizOval,0.270000X-0.434871X0.434871X0.434871X-0.434871X0*%
%ADD22HorizOval,0.270000X0.434871X0.434871X-0.434871X-0.434871X0*%
%ADD23R,0.280000X0.800000*%
%ADD24R,0.800000X0.280000*%
%ADD25R,1.600000X1.600000*%
%ADD26O,1.701600X1.701600*%
%ADD27R,0.800000X1.500000*%
%ADD28R,1.400000X1.900000*%
%ADD29R,1.800000X1.400000*%
%ADD30C,0.280000*%
%ADD31RoundRect,0.100000X-0.083085X-0.224506X0.224506X0.083085X0.083085X0.224506X-0.224506X-0.083085X0*%
%ADD32RoundRect,0.062500X-0.375000X-0.062500X0.375000X-0.062500X0.375000X0.062500X-0.375000X0.062500X0*%
%ADD33RoundRect,0.062500X-0.062500X-0.375000X0.062500X-0.375000X0.062500X0.375000X-0.062500X0.375000X0*%
%ADD34RoundRect,0.250000X0.625000X-0.350000X0.625000X0.350000X-0.625000X0.350000X-0.625000X-0.350000X0*%
%ADD35O,1.750000X1.200000*%
%ADD36O,0.900000X1.700000*%
%ADD37O,0.900000X2.000000*%
G04 APERTURE END LIST*
D10*
%TO.C,C18*%
X160430000Y-83550000D03*
X160430000Y-82735000D03*
%TD*%
%TO.C,1.13k1*%
X137950000Y-70025000D03*
X137950000Y-69210000D03*
%TD*%
D11*
%TO.C,C13*%
X127782500Y-86790000D03*
X128597500Y-86790000D03*
%TD*%
D10*
%TO.C,R19*%
X160080000Y-92927500D03*
X160080000Y-92112500D03*
%TD*%
D11*
%TO.C,C14*%
X127770000Y-87640000D03*
X128585000Y-87640000D03*
%TD*%
D12*
%TO.C,C7*%
X128932500Y-81890000D03*
D13*
X128932500Y-66890000D03*
%TD*%
D14*
%TO.C,R17*%
X167300000Y-89752500D03*
X167300000Y-90567500D03*
%TD*%
D12*
%TO.C,C15*%
X144142500Y-66100000D03*
D13*
X144142500Y-51100000D03*
%TD*%
D11*
%TO.C,C33*%
X146375000Y-69310000D03*
X147190000Y-69310000D03*
%TD*%
D10*
%TO.C,1.18k1*%
X137030000Y-70040000D03*
X137030000Y-69225000D03*
%TD*%
D14*
%TO.C,C35*%
X159270000Y-92082500D03*
X159270000Y-92897500D03*
%TD*%
D11*
%TO.C,C10*%
X127735000Y-91050000D03*
X128550000Y-91050000D03*
%TD*%
%TO.C,C5*%
X152350000Y-84700000D03*
X153165000Y-84700000D03*
%TD*%
D10*
%TO.C,C17*%
X167040000Y-85067500D03*
X167040000Y-84252500D03*
%TD*%
D11*
%TO.C,BLUE1*%
X134112500Y-88320000D03*
X134927500Y-88320000D03*
%TD*%
D15*
%TO.C,U6*%
X145480000Y-93060000D03*
X145480000Y-95360000D03*
D16*
X151780000Y-95360000D03*
D15*
X145480000Y-97660000D03*
%TD*%
D17*
%TO.C,S7*%
X137005000Y-118940000D03*
X141155000Y-118940000D03*
%TD*%
D14*
%TO.C,R10*%
X131200000Y-84252500D03*
X131200000Y-85067500D03*
%TD*%
D18*
%TO.C,R9*%
X133750000Y-92010000D03*
X132935000Y-92010000D03*
%TD*%
D11*
%TO.C,C22*%
X155807883Y-103195000D03*
X156622883Y-103195000D03*
%TD*%
%TO.C,R12*%
X160452500Y-108790000D03*
X161267500Y-108790000D03*
%TD*%
%TO.C,C4*%
X150350000Y-82090000D03*
X151165000Y-82090000D03*
%TD*%
%TO.C,1.5k2*%
X136545000Y-92960000D03*
X137360000Y-92960000D03*
%TD*%
%TO.C,R11*%
X160452500Y-107040000D03*
X161267500Y-107040000D03*
%TD*%
%TO.C,C23*%
X127760000Y-88550000D03*
X128575000Y-88550000D03*
%TD*%
D19*
%TO.C,C20*%
X147803708Y-81253708D03*
X148380000Y-81830000D03*
%TD*%
D11*
%TO.C,C11*%
X127722500Y-91880000D03*
X128537500Y-91880000D03*
%TD*%
D20*
%TO.C,100K2*%
X148590000Y-78230000D03*
X148013708Y-77653708D03*
%TD*%
D11*
%TO.C,C9*%
X145005000Y-103310000D03*
X145820000Y-103310000D03*
%TD*%
D18*
%TO.C,R8*%
X135667500Y-92040000D03*
X134852500Y-92040000D03*
%TD*%
D10*
%TO.C,R1*%
X158660000Y-83827500D03*
X158660000Y-83012500D03*
%TD*%
D18*
%TO.C,C2*%
X154925000Y-87780000D03*
X154110000Y-87780000D03*
%TD*%
D11*
%TO.C,C3*%
X164100000Y-82480000D03*
X164915000Y-82480000D03*
%TD*%
D21*
%TO.C,U3*%
X157040660Y-82119747D03*
X157394214Y-81766194D03*
X157747767Y-81412641D03*
X158101320Y-81059087D03*
X158454874Y-80705534D03*
X158808427Y-80351981D03*
X159161981Y-79998427D03*
X159515534Y-79644874D03*
X159869087Y-79291320D03*
X160222641Y-78937767D03*
X160576194Y-78584214D03*
X160929747Y-78230660D03*
D22*
X160929747Y-76109340D03*
X160576194Y-75755786D03*
X160222641Y-75402233D03*
X159869087Y-75048680D03*
X159515534Y-74695126D03*
X159161981Y-74341573D03*
X158808427Y-73988019D03*
X158454874Y-73634466D03*
X158101320Y-73280913D03*
X157747767Y-72927359D03*
X157394214Y-72573806D03*
X157040660Y-72220253D03*
D21*
X154919340Y-72220253D03*
X154565786Y-72573806D03*
X154212233Y-72927359D03*
X153858680Y-73280913D03*
X153505126Y-73634466D03*
X153151573Y-73988019D03*
X152798019Y-74341573D03*
X152444466Y-74695126D03*
X152090913Y-75048680D03*
X151737359Y-75402233D03*
X151383806Y-75755786D03*
X151030253Y-76109340D03*
D22*
X151030253Y-78230660D03*
X151383806Y-78584214D03*
X151737359Y-78937767D03*
X152090913Y-79291320D03*
X152444466Y-79644874D03*
X152798019Y-79998427D03*
X153151573Y-80351981D03*
X153505126Y-80705534D03*
X153858680Y-81059087D03*
X154212233Y-81412641D03*
X154565786Y-81766194D03*
X154919340Y-82119747D03*
%TD*%
D11*
%TO.C,R14*%
X160452500Y-112290000D03*
X161267500Y-112290000D03*
%TD*%
%TO.C,100k1*%
X136012500Y-88050000D03*
X136827500Y-88050000D03*
%TD*%
D17*
%TO.C,S8*%
X128060000Y-113230000D03*
X132210000Y-113230000D03*
%TD*%
D18*
%TO.C,C32*%
X128525000Y-90200000D03*
X127710000Y-90200000D03*
%TD*%
D11*
%TO.C,1M1*%
X155753500Y-102320117D03*
X156568500Y-102320117D03*
%TD*%
D17*
%TO.C,S2*%
X145115000Y-113310000D03*
X149265000Y-113310000D03*
%TD*%
D23*
%TO.C,U2*%
X164979000Y-86270000D03*
X164479000Y-86270000D03*
X163981000Y-86270000D03*
X163480500Y-86270000D03*
D24*
X162730000Y-87021000D03*
X162730000Y-87521000D03*
X162730000Y-88019000D03*
X162730000Y-88519500D03*
D23*
X163480500Y-89270000D03*
X163981000Y-89270000D03*
X164479000Y-89270000D03*
X164979000Y-89270000D03*
D24*
X165730000Y-88519500D03*
X165730000Y-88019000D03*
X165730000Y-87521000D03*
X165730000Y-87021000D03*
D25*
X164230000Y-87770000D03*
%TD*%
D10*
%TO.C,C1*%
X139930000Y-66770000D03*
X139930000Y-65955000D03*
%TD*%
D26*
%TO.C,OLED1*%
X129430050Y-62580000D03*
X129430050Y-60040000D03*
X129430050Y-57500000D03*
X129430050Y-54960000D03*
%TD*%
D11*
%TO.C,R16*%
X141755000Y-100440000D03*
X142570000Y-100440000D03*
%TD*%
D10*
%TO.C,R7*%
X136240000Y-78450000D03*
X136240000Y-77635000D03*
%TD*%
D27*
%TO.C,U4*%
X157010000Y-53860000D03*
X158110000Y-54260000D03*
X159210000Y-53860000D03*
X160310000Y-53660000D03*
X161410000Y-53860000D03*
X162510000Y-53660000D03*
X163610000Y-53860000D03*
X164710000Y-53860000D03*
D28*
X165510000Y-51010000D03*
D29*
X158260000Y-64220000D03*
D28*
X152310000Y-49900000D03*
D29*
X163960000Y-64220000D03*
%TD*%
D17*
%TO.C,S6*%
X136785000Y-106810000D03*
X140935000Y-106810000D03*
%TD*%
D30*
%TO.C,U1*%
X142002893Y-80991320D03*
X141649340Y-80637767D03*
X141295786Y-80284214D03*
X140942233Y-79930660D03*
X140588679Y-79577107D03*
X140235126Y-79223553D03*
X139881573Y-78870000D03*
X139528019Y-78516447D03*
X139174466Y-78162893D03*
X138820912Y-77809340D03*
X138467359Y-77455786D03*
X138113806Y-77102233D03*
X142356446Y-80637767D03*
X142002893Y-80284214D03*
X141649340Y-79930660D03*
X141295786Y-79577107D03*
X140942233Y-79223553D03*
X140588679Y-78870000D03*
X140235126Y-78516447D03*
X139881573Y-78162893D03*
X139528019Y-77809340D03*
X139174466Y-77455786D03*
X138820912Y-77102233D03*
X138467359Y-76748680D03*
X142710000Y-80284214D03*
X142356446Y-79930660D03*
X142002893Y-79577107D03*
X141649340Y-79223553D03*
X141295786Y-78870000D03*
X140235126Y-77809340D03*
X139881573Y-77455786D03*
X139528019Y-77102233D03*
X139174466Y-76748680D03*
X138820912Y-76395126D03*
X143063553Y-79930660D03*
X142710000Y-79577107D03*
X142356446Y-79223553D03*
X139881573Y-76748680D03*
X139528019Y-76395126D03*
X139174466Y-76041573D03*
X143417107Y-79577107D03*
X143063553Y-79223553D03*
X142710000Y-78870000D03*
X140235126Y-76395126D03*
X139881573Y-76041573D03*
X139528019Y-75688019D03*
X143770660Y-79223553D03*
X143417107Y-78870000D03*
X140235126Y-75688019D03*
X139881573Y-75334466D03*
X144124213Y-78870000D03*
X143770660Y-78516447D03*
X140588679Y-75334466D03*
X140235126Y-74980913D03*
X144477767Y-78516447D03*
X144124213Y-78162893D03*
X143770660Y-77809340D03*
X141295786Y-75334466D03*
X140942233Y-74980913D03*
X140588679Y-74627359D03*
X144831320Y-78162893D03*
X144477767Y-77809340D03*
X144124213Y-77455786D03*
X141649340Y-74980913D03*
X141295786Y-74627359D03*
X140942233Y-74273806D03*
X145184874Y-77809340D03*
X144831320Y-77455786D03*
X144477767Y-77102233D03*
X144124213Y-76748680D03*
X143770660Y-76395126D03*
X142710000Y-75334466D03*
X142356446Y-74980913D03*
X142002893Y-74627359D03*
X141649340Y-74273806D03*
X141295786Y-73920252D03*
X145538427Y-77455786D03*
X145184874Y-77102233D03*
X144831320Y-76748680D03*
X144477767Y-76395126D03*
X144124213Y-76041573D03*
X143770660Y-75688019D03*
X143417107Y-75334466D03*
X143063553Y-74980913D03*
X142710000Y-74627359D03*
X142356446Y-74273806D03*
X142002893Y-73920252D03*
X141649340Y-73566699D03*
X145891980Y-77102233D03*
X145538427Y-76748680D03*
X145184874Y-76395126D03*
X144831320Y-76041573D03*
X144477767Y-75688019D03*
X144124213Y-75334466D03*
X143770660Y-74980913D03*
X143417107Y-74627359D03*
X143063553Y-74273806D03*
X142710000Y-73920252D03*
X142356446Y-73566699D03*
X142002893Y-73213146D03*
%TD*%
D31*
%TO.C,R20*%
X145517678Y-72872322D03*
X146093970Y-72296030D03*
%TD*%
D17*
%TO.C,S9*%
X154165000Y-67920000D03*
X158315000Y-67920000D03*
%TD*%
D19*
%TO.C,C6*%
X148550000Y-80660000D03*
X149126292Y-81236292D03*
%TD*%
D10*
%TO.C,C27*%
X137570000Y-81787500D03*
X137570000Y-80972500D03*
%TD*%
D32*
%TO.C,U5*%
X133992500Y-83590000D03*
X133992500Y-84090000D03*
X133992500Y-84590000D03*
X133992500Y-85090000D03*
D33*
X134680000Y-85777500D03*
X135180000Y-85777500D03*
X135680000Y-85777500D03*
X136180000Y-85777500D03*
D32*
X136867500Y-85090000D03*
X136867500Y-84590000D03*
X136867500Y-84090000D03*
X136867500Y-83590000D03*
D33*
X136180000Y-82902500D03*
X135680000Y-82902500D03*
X135180000Y-82902500D03*
X134680000Y-82902500D03*
D25*
X135430000Y-84340000D03*
%TD*%
D17*
%TO.C,S3*%
X128415000Y-106810000D03*
X132565000Y-106810000D03*
%TD*%
D11*
%TO.C,C12*%
X127750000Y-89370000D03*
X128565000Y-89370000D03*
%TD*%
D14*
%TO.C,C34*%
X135900000Y-75790000D03*
X135900000Y-76605000D03*
%TD*%
D11*
%TO.C,C28*%
X132772500Y-87200000D03*
X133587500Y-87200000D03*
%TD*%
D17*
%TO.C,S1*%
X145755000Y-107230000D03*
X149905000Y-107230000D03*
%TD*%
D11*
%TO.C,C21*%
X155807883Y-101445000D03*
X156622883Y-101445000D03*
%TD*%
%TO.C,R13*%
X160452500Y-110540000D03*
X161267500Y-110540000D03*
%TD*%
D18*
%TO.C,C36*%
X148497500Y-71930000D03*
X147682500Y-71930000D03*
%TD*%
%TO.C,1.5k1*%
X136867500Y-88940000D03*
X136052500Y-88940000D03*
%TD*%
D11*
%TO.C,R18*%
X155860000Y-92400000D03*
X156675000Y-92400000D03*
%TD*%
%TO.C,D1*%
X139342500Y-88610000D03*
X140157500Y-88610000D03*
%TD*%
%TO.C,C8*%
X145005000Y-101560000D03*
X145820000Y-101560000D03*
%TD*%
D17*
%TO.C,S5*%
X136825000Y-112940000D03*
X140975000Y-112940000D03*
%TD*%
%TO.C,S4*%
X128330000Y-119080000D03*
X132480000Y-119080000D03*
%TD*%
D11*
%TO.C,R5*%
X135695000Y-80880000D03*
X136510000Y-80880000D03*
%TD*%
D19*
%TO.C,R21*%
X139331854Y-72151854D03*
X139908146Y-72728146D03*
%TD*%
D11*
%TO.C,C19*%
X144775000Y-104880000D03*
X145590000Y-104880000D03*
%TD*%
D12*
%TO.C,C16*%
X149565000Y-66070000D03*
D13*
X149565000Y-51070000D03*
%TD*%
D11*
%TO.C,C24*%
X127800000Y-85960000D03*
X128615000Y-85960000D03*
%TD*%
D34*
%TO.C,J4*%
X165420000Y-101240000D03*
D35*
X165420000Y-99240000D03*
X165420000Y-97240000D03*
%TD*%
D36*
%TO.C,J1*%
X167220000Y-122945000D03*
D37*
X167220000Y-118775000D03*
D36*
X158580000Y-122945000D03*
D37*
X158580000Y-118775000D03*
%TD*%
M02*
