%TF.GenerationSoftware,KiCad,Pcbnew,9.0.6*%
%TF.CreationDate,2025-12-23T23:32:32-06:00*%
%TF.ProjectId,Tony's MP3 Player,546f6e79-2773-4204-9d50-3320506c6179,rev?*%
%TF.SameCoordinates,Original*%
%TF.FileFunction,Soldermask,Bot*%
%TF.FilePolarity,Negative*%
%FSLAX46Y46*%
G04 Gerber Fmt 4.6, Leading zero omitted, Abs format (unit mm)*
G04 Created by KiCad (PCBNEW 9.0.6) date 2025-12-23 23:32:32*
%MOMM*%
%LPD*%
G01*
G04 APERTURE LIST*
G04 Aperture macros list*
%AMRoundRect*
0 Rectangle with rounded corners*
0 $1 Rounding radius*
0 $2 $3 $4 $5 $6 $7 $8 $9 X,Y pos of 4 corners*
0 Add a 4 corners polygon primitive as box body*
4,1,4,$2,$3,$4,$5,$6,$7,$8,$9,$2,$3,0*
0 Add four circle primitives for the rounded corners*
1,1,$1+$1,$2,$3*
1,1,$1+$1,$4,$5*
1,1,$1+$1,$6,$7*
1,1,$1+$1,$8,$9*
0 Add four rect primitives between the rounded corners*
20,1,$1+$1,$2,$3,$4,$5,0*
20,1,$1+$1,$4,$5,$6,$7,0*
20,1,$1+$1,$6,$7,$8,$9,0*
20,1,$1+$1,$8,$9,$2,$3,0*%
G04 Aperture macros list end*
%ADD10RoundRect,0.250000X0.750000X-0.750000X0.750000X0.750000X-0.750000X0.750000X-0.750000X-0.750000X0*%
%ADD11C,2.000000*%
%ADD12O,1.701600X1.701600*%
%ADD13RoundRect,0.250000X0.625000X-0.350000X0.625000X0.350000X-0.625000X0.350000X-0.625000X-0.350000X0*%
%ADD14O,1.750000X1.200000*%
%ADD15RoundRect,0.100000X0.217500X0.100000X-0.217500X0.100000X-0.217500X-0.100000X0.217500X-0.100000X0*%
%ADD16R,2.800000X2.200000*%
%ADD17R,2.800000X2.800000*%
%ADD18R,2.200000X2.800000*%
%ADD19RoundRect,0.100000X-0.217500X-0.100000X0.217500X-0.100000X0.217500X0.100000X-0.217500X0.100000X0*%
%ADD20RoundRect,0.100000X0.100000X-0.217500X0.100000X0.217500X-0.100000X0.217500X-0.100000X-0.217500X0*%
%ADD21RoundRect,0.250001X1.762499X1.849999X-1.762499X1.849999X-1.762499X-1.849999X1.762499X-1.849999X0*%
%ADD22C,0.600000*%
%ADD23R,0.600000X1.160000*%
%ADD24R,0.300000X1.160000*%
%ADD25O,0.900000X1.700000*%
%ADD26O,0.900000X2.000000*%
G04 APERTURE END LIST*
D10*
%TO.C,C7*%
X128932500Y-81890000D03*
D11*
X128932500Y-66890000D03*
%TD*%
D10*
%TO.C,C15*%
X144142500Y-66100000D03*
D11*
X144142500Y-51100000D03*
%TD*%
D12*
%TO.C,OLED1*%
X129430050Y-62580000D03*
X129430050Y-60040000D03*
X129430050Y-57500000D03*
X129430050Y-54960000D03*
%TD*%
D10*
%TO.C,C16*%
X149565000Y-66070000D03*
D11*
X149565000Y-51070000D03*
%TD*%
D13*
%TO.C,J4*%
X165420000Y-101240000D03*
D14*
X165420000Y-99240000D03*
X165420000Y-97240000D03*
%TD*%
D15*
%TO.C,R6*%
X158327500Y-116350000D03*
X157512500Y-116350000D03*
%TD*%
D16*
%TO.C,J2*%
X139850000Y-53349717D03*
D17*
X139850000Y-62749717D03*
D16*
X132450000Y-55349717D03*
D18*
X135400000Y-66949717D03*
%TD*%
D19*
%TO.C,C31*%
X162350000Y-114000000D03*
X163165000Y-114000000D03*
%TD*%
%TO.C,R15*%
X160452500Y-114040000D03*
X161267500Y-114040000D03*
%TD*%
D20*
%TO.C,R3*%
X163380000Y-116215000D03*
X163380000Y-115400000D03*
%TD*%
D15*
%TO.C,C30*%
X156387500Y-117230000D03*
X155572500Y-117230000D03*
%TD*%
%TO.C,R4*%
X158220000Y-114550000D03*
X157405000Y-114550000D03*
%TD*%
D21*
%TO.C,Y1*%
X164462500Y-109080000D03*
X156437500Y-109080000D03*
%TD*%
D15*
%TO.C,C29*%
X156357500Y-118740000D03*
X155542500Y-118740000D03*
%TD*%
D19*
%TO.C,R2*%
X157452500Y-113660000D03*
X158267500Y-113660000D03*
%TD*%
%TO.C,R10k1*%
X163262500Y-112290000D03*
X164077500Y-112290000D03*
%TD*%
D22*
%TO.C,J1*%
X165790000Y-119255000D03*
X160010000Y-119255000D03*
D23*
X166100000Y-118195000D03*
X165300000Y-118195000D03*
D24*
X164150000Y-118195000D03*
X163150000Y-118195000D03*
X162650000Y-118195000D03*
X161650000Y-118195000D03*
D23*
X160500000Y-118195000D03*
X159700000Y-118195000D03*
X159700000Y-118195000D03*
X160500000Y-118195000D03*
D24*
X161150000Y-118195000D03*
X162150000Y-118195000D03*
X163650000Y-118195000D03*
X164650000Y-118195000D03*
D23*
X165300000Y-118195000D03*
X166100000Y-118195000D03*
D25*
X167220000Y-122945000D03*
D26*
X167220000Y-118775000D03*
D25*
X158580000Y-122945000D03*
D26*
X158580000Y-118775000D03*
%TD*%
D19*
%TO.C,R50*%
X161290000Y-116270000D03*
X162105000Y-116270000D03*
%TD*%
M02*
