M48
; DRILL file {KiCad 9.0.6} date 2025-12-23T23:32:32-0600
; FORMAT={-:-/ absolute / inch / decimal}
; #@! TF.CreationDate,2025-12-23T23:32:32-06:00
; #@! TF.GenerationSoftware,Kicad,Pcbnew,9.0.6
; #@! TF.FileFunction,Plated,1,2,PTH
FMAT,2
INCH
; #@! TA.AperFunction,Plated,PTH,ViaDrill
T1C0.0118
; #@! TA.AperFunction,Plated,PTH,ComponentDrill
T2C0.0236
; #@! TA.AperFunction,Plated,PTH,ComponentDrill
T3C0.0295
; #@! TA.AperFunction,Plated,PTH,ComponentDrill
T4C0.0394
%
G90
G05
T1
X4.9911Y-3.2825
X5.042Y-3.3474
X5.1238Y-3.3623
X5.1837Y-3.2823
X5.189Y-3.3687
X5.1972Y-3.4886
X5.2167Y-3.5081
X5.2354Y-2.9217
X5.2476Y-3.4097
X5.2777Y-3.0931
X5.3028Y-3.1809
X5.3035Y-3.1435
X5.3071Y-3.4144
X5.3143Y-3.4524
X5.3225Y-3.6957
X5.3378Y-3.0902
X5.3427Y-3.428
X5.3614Y-3.6953
X5.3734Y-2.8777
X5.3819Y-3.0185
X5.389Y-3.4272
X5.4122Y-3.0022
X5.4124Y-2.8641
X5.4131Y-3.4794
X5.4131Y-3.4139
X5.4154Y-2.9166
X5.4169Y-3.1435
X5.4242Y-3.2722
X5.4242Y-3.3134
X5.4349Y-2.8971
X5.4361Y-3.6646
X5.4394Y-3.5331
X5.4503Y-3.1439
X5.4512Y-3.5024
X5.452Y-3.1831
X5.4556Y-3.6451
X5.4575Y-2.9307
X5.4596Y-3.1097
X5.4705Y-2.8063
X5.4766Y-2.8717
X5.4776Y-3.1932
X5.4815Y-3.5518
X5.4837Y-3.2886
X5.4837Y-3.3303
X5.4862Y-4.3098
X5.5002Y-3.5972
X5.5055Y-3.5383
X5.5063Y-2.5461
X5.5211Y-3.1937
X5.5213Y-3.1634
X5.524Y-4.5091
X5.5248Y-2.82
X5.5295Y-3.5518
X5.5307Y-4.6287
X5.5368Y-2.9942
X5.5469Y-3.0198
X5.5602Y-3.3079
X5.5622Y-2.6291
X5.5624Y-3.3354
X5.5701Y-3.3969
X5.5722Y-3.6529
X5.5843Y-3.0417
X5.5909Y-3.3492
X5.5917Y-2.9953
X5.6029Y-3.7568
X5.6104Y-3.2866
X5.6107Y-3.0152
X5.6291Y-3.324
X5.6292Y-3.8033
X5.63Y-3.7032
X5.6379Y-3.6549
X5.6382Y-3.0537
X5.6394Y-3.0177
X5.6535Y-3.3472
X5.6544Y-3.6769
X5.6618Y-3.2866
X5.6772Y-3.5892
X5.6936Y-2.5394
X5.6958Y-2.9033
X5.7047Y-3.1012
X5.7103Y-2.8156
X5.7177Y-2.71
X5.7339Y-4.664
X5.7437Y-2.7683
X5.7506Y-3.8991
X5.77Y-3.9185
X5.7749Y-3.2352
X5.785Y-4.0413
X5.7909Y-4.086
X5.7913Y-3.9445
X5.7987Y-4.664
X5.8Y-3.1535
X5.8025Y-3.3715
X5.8126Y-3.0161
X5.83Y-3.3715
X5.8426Y-3.4105
X5.8493Y-2.9162
X5.8679Y-3.8471
X5.8717Y-2.7953
X5.8846Y-3.4089
X5.8846Y-3.3453
X5.8858Y-3.2392
X5.8917Y-3.774
X5.8961Y-4.3114
X5.8978Y-3.3053
X5.8994Y-3.103
X5.8997Y-4.0703
X5.9112Y-3.3715
X5.9122Y-3.4089
X5.9335Y-3.5705
X5.9365Y-3.2579
X5.9538Y-4.1432
X5.9587Y-3.2047
X5.9641Y-4.1176
X5.9705Y-3.6587
X5.9799Y-3.5705
X5.986Y-3.4734
X6.0024Y-3.0463
X6.0055Y-3.5272
X6.0098Y-3.0089
X6.0108Y-3.6659
X6.0323Y-4.2169
X6.0327Y-4.5098
X6.0482Y-4.0488
X6.0482Y-3.8177
X6.051Y-4.0989
X6.0535Y-3.6274
X6.0669Y-3.7453
X6.0728Y-3.3509
X6.0796Y-4.1921
X6.0803Y-4.0989
X6.0984Y-3.6175
X6.1382Y-3.3159
X6.1472Y-4.4016
X6.1551Y-3.6831
X6.1703Y-3.1636
X6.1787Y-3.4374
X6.1849Y-3.8096
X6.1901Y-3.6192
X6.1955Y-3.1359
X6.2003Y-3.3612
X6.2053Y-3.445
X6.2065Y-2.3541
X6.224Y-3.4815
X6.2315Y-4.1831
X6.2355Y-2.339
X6.2413Y-4.1378
X6.2431Y-3.5013
X6.2455Y-3.3715
X6.2579Y-2.3835
X6.2661Y-3.3528
X6.2672Y-3.5331
X6.2693Y-2.1772
X6.2737Y-2.3253
X6.2787Y-4.533
X6.2827Y-4.562
X6.2939Y-3.7955
X6.3028Y-3.5024
X6.3082Y-4.5515
X6.3134Y-3.9435
X6.3169Y-4.4528
X6.3181Y-3.2
X6.3224Y-3.5778
X6.3303Y-3.4423
X6.3346Y-3.847
X6.3362Y-4.1911
X6.3374Y-4.5406
X6.3472Y-4.2512
X6.3512Y-3.4162
X6.3756Y-3.5978
X6.3858Y-2.7274
X6.4087Y-4.1724
X6.4287Y-2.7843
X6.4351Y-2.7098
X6.4372Y-3.3579
X6.4435Y-3.1949
X6.4435Y-3.2248
X6.4498Y-2.8057
X6.4531Y-3.2815
X6.4547Y-3.3323
X6.4598Y-4.6098
X6.474Y-3.3126
X6.4909Y-4.1823
X6.4984Y-3.1559
X6.5008Y-3.5591
X6.5209Y-3.2147
X6.5325Y-2.7808
X6.5362Y-3.5902
X6.5409Y-2.7546
X6.5425Y-3.6244
X6.561Y-4.4665
X6.5846Y-3.2157
X6.5846Y-3.6936
T3
X6.5126Y-3.8283
X6.5126Y-3.9071
X6.5126Y-3.9858
T4
X5.0761Y-2.6335
X5.0761Y-3.224
X5.0957Y-2.1638
X5.0957Y-2.2638
X5.0957Y-2.3638
X5.0957Y-2.4638
X5.6749Y-2.0118
X5.6749Y-2.6024
X5.8884Y-2.0106
X5.8884Y-2.6012
T2
G00X6.2433Y-4.6978
M15
G01X6.2433Y-4.6545
M16
G05
G00X6.2433Y-4.8561
M15
G01X6.2433Y-4.8246
M16
G05
G00X6.5835Y-4.6978
M15
G01X6.5835Y-4.6545
M16
G05
G00X6.5835Y-4.8561
M15
G01X6.5835Y-4.8246
M16
G05
M30
